<svg xmlns="http://www.w3.org/2000/svg" viewBox="0 0 192.73 93.38"><defs><style>.cls-1{fill:#373435;}.cls-2,.cls-5{fill:#ce9043;}.cls-2,.cls-4,.cls-7{fill-rule:evenodd;}.cls-3{fill:none;stroke:#ce9043;stroke-miterlimit:2.61;stroke-width:0.75px;}.cls-4{fill:#9e3c3f;}.cls-6,.cls-7{fill:#fefefe;}</style></defs><title>Asset 1</title><g id="Layer_2" data-name="Layer 2"><g id="Layer_1-2" data-name="Layer 1"><path class="cls-1" d="M161.19,65.51h.14l1,1.07,1.82,2c.72.79,1.53,1.65,2.42,2.61s1.83,1.95,2.83,3,2,2,3,3L176.16,81,180,84.79c1.24,1.25,2.39,2.39,3.45,3.44s1.95,1.93,2.69,2.64a7.21,7.21,0,0,0,.79.7,1.36,1.36,0,0,0,.79.32.48.48,0,0,0,.46-.34,2.94,2.94,0,0,0,.14-1.1l.51-29.31A12.52,12.52,0,0,1,189,59a2.74,2.74,0,0,1,.53-1.24,2,2,0,0,1,1-.61,3.65,3.65,0,0,1,.74-.12c.21,0,.43,0,.66,0,.55,0,.83-.14.83-.41a.36.36,0,0,0-.31-.35,2.39,2.39,0,0,0-.76-.07c-.75,0-1.45,0-2.07,0s-1.15,0-1.57.06l-.91,0-1.35,0q-.85,0-1.95-.06c-.73,0-1.51,0-2.32,0a3.18,3.18,0,0,0-.87.07.38.38,0,0,0-.34.35.36.36,0,0,0,.17.31,1.31,1.31,0,0,0,.58.1h.77a8.47,8.47,0,0,1,.88.07,4.17,4.17,0,0,1,.81.2,2.22,2.22,0,0,1,.9.66,3.13,3.13,0,0,1,.5,1.28,13.92,13.92,0,0,1,.18,2.24l.46,20.86h-.23c-.17-.16-.52-.53-1.06-1.08l-2-2.06c-.77-.81-1.58-1.67-2.45-2.57L177.28,74c-.82-.85-1.56-1.6-2.2-2.24-1.36-1.36-2.72-2.72-4.05-4.08s-2.59-2.66-3.78-3.9S165,61.44,164,60.44L161.74,58l-1.06-1.14c-.39-.43-.7-.78-1-1a1.16,1.16,0,0,0-.76-.4c-.22,0-.38.15-.47.44a3.92,3.92,0,0,0-.13,1.14l-.42,27.5c0,1.34-.05,2.4-.12,3.2a5.34,5.34,0,0,1-.42,1.8,1.44,1.44,0,0,1-.9.76,5.86,5.86,0,0,1-1.06.18c-.38,0-.72,0-1,0a1.31,1.31,0,0,0-.54.08.3.3,0,0,0-.2.29.38.38,0,0,0,.28.39,2.26,2.26,0,0,0,.74.07c.81,0,1.58,0,2.28,0s1.3,0,1.78-.07l1,0c.44,0,1.13,0,2.08.06s2.17.07,3.68.07a2.73,2.73,0,0,0,.78-.09.38.38,0,0,0,.28-.37.3.3,0,0,0-.2-.29,1.55,1.55,0,0,0-.59-.08,9.88,9.88,0,0,1-1.19-.06,5.12,5.12,0,0,1-1.22-.27,1.55,1.55,0,0,1-.81-.67,4.51,4.51,0,0,1-.56-1.61A17.75,17.75,0,0,1,161.7,85ZM138.11,77.86c0,1.51,0,2.91,0,4.2s0,2.43-.06,3.44-.09,1.83-.17,2.49a4.36,4.36,0,0,1-.38,1.59,1.28,1.28,0,0,1-1,.73,5.71,5.71,0,0,1-.73.13,6.8,6.8,0,0,1-1,.06,1.2,1.2,0,0,0-.58.1.3.3,0,0,0-.16.27.38.38,0,0,0,.24.36,1.8,1.8,0,0,0,.69.1c.47,0,1,0,1.55,0l1.67,0,1.53,0c.46,0,.83,0,1.1,0l1.76,0,2.52.07q1.43,0,3,0a1.6,1.6,0,0,0,.63-.1.39.39,0,0,0,.25-.36.29.29,0,0,0-.18-.27,1.17,1.17,0,0,0-.56-.1l-.78,0-.84-.07-.75-.1a2.18,2.18,0,0,1-1.07-.39,1.78,1.78,0,0,1-.56-.78,4.73,4.73,0,0,1-.23-1.1c-.06-.68-.1-1.51-.13-2.53s0-2.16,0-3.45V63.6c0-.68,0-1.24,0-1.68s0-.84,0-1.17,0-.62.05-.91a4.18,4.18,0,0,1,.42-1.85,1.79,1.79,0,0,1,1.3-.8l.72-.11c.22,0,.45,0,.67,0a1.28,1.28,0,0,0,.54-.09.38.38,0,0,0,.2-.37c0-.14-.09-.23-.26-.3a2.68,2.68,0,0,0-.71-.07l-1.46,0-1.6,0-1.48,0-1.13,0-1.26,0-1.6,0-1.68,0-1.5,0a3.43,3.43,0,0,0-.83.07c-.19.07-.28.16-.28.3a.38.38,0,0,0,.2.37,1.28,1.28,0,0,0,.54.09,8.06,8.06,0,0,1,.85,0,5,5,0,0,1,.82.15,1.65,1.65,0,0,1,1.14.8,3.76,3.76,0,0,1,.44,1.8c0,.29,0,.6.05.91s0,.72,0,1.17,0,1,0,1.68,0,1.5,0,2.5V77.86Zm-26.2,11.29c.28.72.52,1.29.71,1.7a3.17,3.17,0,0,0,.53.89.68.68,0,0,0,.52.25.74.74,0,0,0,.57-.3,4.78,4.78,0,0,0,.62-1c.24-.51.55-1.2,1-2.09l1.39-3.2q.89-2,2.09-4.8l2.7-6.17c.5-1.14,1-2.17,1.37-3.08s.79-1.77,1.15-2.56l1-2.28c.33-.73.66-1.47,1-2.23s.69-1.57,1-2.44.78-1.75,1.08-2.31a8,8,0,0,1,.83-1.27,2.69,2.69,0,0,1,.65-.6,2.87,2.87,0,0,1,.86-.39,4.14,4.14,0,0,1,.8-.15c.25,0,.46,0,.61,0a1.6,1.6,0,0,0,.55-.08.34.34,0,0,0,.2-.33.35.35,0,0,0-.27-.34,2.27,2.27,0,0,0-.71-.08l-1.16,0-1.25,0-1.14,0-.82,0-1,0c-.47,0-1,0-1.7-.06s-1.38,0-2.16,0a3.21,3.21,0,0,0-1,.09.37.37,0,0,0-.31.37.3.3,0,0,0,.24.31,1.74,1.74,0,0,0,.55.06c.3,0,.61,0,.94.05a3.77,3.77,0,0,1,.91.19.8.8,0,0,1,.46.35,1,1,0,0,1,.15.53,3.3,3.3,0,0,1-.13.79,6.64,6.64,0,0,1-.29.93c-.16.45-.42,1.1-.75,2s-.75,1.89-1.2,3.06-1,2.41-1.49,3.75-1.07,2.69-1.62,4.06l-1.6,4c-.52,1.3-1,2.48-1.42,3.56s-.79,2-1.07,2.73h-.19l-8-21.09c-.32-.84-.59-1.57-.77-2.19a5.44,5.44,0,0,1-.3-1.39,1.38,1.38,0,0,1,.11-.55,1,1,0,0,1,.36-.42,1.63,1.63,0,0,1,.77-.27,8.22,8.22,0,0,1,1-.06,1.34,1.34,0,0,0,.5-.08.34.34,0,0,0,.2-.33c0-.17-.12-.28-.33-.34a2.7,2.7,0,0,0-.74-.08c-.78,0-1.53,0-2.25,0s-1.39,0-2,.06-1.08,0-1.47,0c-.55,0-1.2,0-1.92,0s-1.51,0-2.34-.06-1.65,0-2.48,0a3.15,3.15,0,0,0-.87.07.38.38,0,0,0-.34.35.37.37,0,0,0,.13.31.73.73,0,0,0,.43.1c.19,0,.46,0,.78,0a4.87,4.87,0,0,1,1,.16,5.84,5.84,0,0,1,1.43.55,3.6,3.6,0,0,1,1.08,1,10.08,10.08,0,0,1,1,2ZM83.48,77.86c0,1.51,0,2.91,0,4.2s0,2.43-.06,3.44-.09,1.83-.16,2.49a4.81,4.81,0,0,1-.38,1.59,1.29,1.29,0,0,1-1,.73,5.71,5.71,0,0,1-.73.13,6.65,6.65,0,0,1-.94.06,1.18,1.18,0,0,0-.58.1.29.29,0,0,0-.17.27.38.38,0,0,0,.24.36,1.8,1.8,0,0,0,.69.1c.48,0,1,0,1.55,0l1.67,0,1.54,0c.45,0,.82,0,1.1,0l1.75,0,2.53.07c.94,0,1.93,0,3,0a1.65,1.65,0,0,0,.64-.1.38.38,0,0,0,.24-.36.29.29,0,0,0-.17-.27,1.21,1.21,0,0,0-.57-.1l-.78,0L92,90.41l-.75-.1a2.22,2.22,0,0,1-1.07-.39,1.69,1.69,0,0,1-.55-.78,4.25,4.25,0,0,1-.24-1.1c-.06-.68-.1-1.51-.13-2.53s0-2.16,0-3.45,0-2.69,0-4.2V66.1c0-1,0-1.83,0-2.5s0-1.24,0-1.68,0-.84,0-1.17,0-.62,0-.91A4,4,0,0,1,89.76,58a1.77,1.77,0,0,1,1.29-.8l.73-.11c.21,0,.44,0,.66,0A1.34,1.34,0,0,0,93,57a.38.38,0,0,0,.2-.37c0-.14-.1-.23-.27-.3a2.68,2.68,0,0,0-.71-.07l-1.46,0-1.6,0-1.47,0-1.14,0-1.26,0-1.6,0-1.67,0-1.5,0a3.52,3.52,0,0,0-.84.07c-.19.07-.28.16-.28.3a.38.38,0,0,0,.2.37,1.32,1.32,0,0,0,.54.09,8.38,8.38,0,0,1,.86,0,5.4,5.4,0,0,1,.82.15,1.61,1.61,0,0,1,1.13.8,3.75,3.75,0,0,1,.45,1.8c0,.29,0,.6,0,.91s0,.72,0,1.17,0,1,0,1.68,0,1.5,0,2.5V77.86ZM53.89,59.24A.91.91,0,0,1,54,58.8a.53.53,0,0,1,.34-.21,4.61,4.61,0,0,1,1-.15c.42,0,.92,0,1.5,0a6.53,6.53,0,0,1,1.79.25,7.16,7.16,0,0,1,1.89.84,6.84,6.84,0,0,1,1.72,1.57,7.69,7.69,0,0,1,1.23,2.43,11.44,11.44,0,0,1,.48,3.41,12.19,12.19,0,0,1-.41,3.28,7.58,7.58,0,0,1-1,2.27,5.73,5.73,0,0,1-1.33,1.42,4.63,4.63,0,0,1-.82.47,3.57,3.57,0,0,1-1,.25,12.17,12.17,0,0,1-1.49.07c-.39,0-.8,0-1.22,0a11.62,11.62,0,0,1-1.22-.15,7.55,7.55,0,0,1-1.09-.27.59.59,0,0,1-.34-.27,1.38,1.38,0,0,1-.08-.56ZM48.41,77.86c0,1.44,0,2.78,0,4s0,2.37-.06,3.37-.09,1.83-.16,2.49A11.11,11.11,0,0,1,48,89a2.24,2.24,0,0,1-.4.88,1.1,1.1,0,0,1-.72.45,5.71,5.71,0,0,1-.73.13,6.76,6.76,0,0,1-.94.06,1.18,1.18,0,0,0-.58.1.29.29,0,0,0-.17.27.38.38,0,0,0,.24.36,1.8,1.8,0,0,0,.69.1c.47,0,1,0,1.55,0l1.65,0,1.47,0c.44,0,.77,0,1,0s.51,0,1,0l1.68,0,2.06,0c.72,0,1.43,0,2.11,0a1.8,1.8,0,0,0,.69-.1.38.38,0,0,0,.24-.36.31.31,0,0,0-.14-.27.71.71,0,0,0-.42-.1l-.68,0-.82-.07-.78-.1a1.85,1.85,0,0,1-1.06-.45,1.77,1.77,0,0,1-.52-.88,6,6,0,0,1-.23-1.22C54,87.1,54,86.27,54,85.27s-.06-2.13-.06-3.39,0-2.61,0-4.06v-.65a.38.38,0,0,1,.1-.3.41.41,0,0,1,.27-.07l4,.09a1.38,1.38,0,0,1,.46,0,.87.87,0,0,1,.38.27c.15.18.39.5.71.94L61,79.72c.42.61.88,1.25,1.35,1.92s1,1.33,1.42,2c.86,1.2,1.65,2.23,2.36,3.12a21.54,21.54,0,0,0,2,2.26,8.91,8.91,0,0,0,2,1.45,6.22,6.22,0,0,0,1.25.52,7.7,7.7,0,0,0,1.55.28c.59,0,1.31.08,2.17.08h4.41a1.84,1.84,0,0,0,.65-.09.37.37,0,0,0,.24-.37.31.31,0,0,0-.14-.27.73.73,0,0,0-.42-.1l-.6,0c-.21,0-.45-.06-.7-.11s-.43-.09-.74-.17a7.83,7.83,0,0,1-1.15-.45,11.5,11.5,0,0,1-1.5-.93,13.73,13.73,0,0,1-1.81-1.61C71.94,85.75,70.44,84,68.79,82s-3.5-4.38-5.56-7a22.92,22.92,0,0,0,3.67-3.62A11.55,11.55,0,0,0,68.81,68a10,10,0,0,0,.55-3.37,8,8,0,0,0-.31-2.18,8.78,8.78,0,0,0-.78-1.84,8,8,0,0,0-1-1.42,6.52,6.52,0,0,0-1-.93,10.46,10.46,0,0,0-2.68-1.28,14.85,14.85,0,0,0-2.91-.58,29.44,29.44,0,0,0-3-.13l-1.41,0-1.81,0-1.84,0-1.49,0-1.06,0-1.56,0-1.85,0-1.89,0a2.28,2.28,0,0,0-.78.08.33.33,0,0,0-.24.34.34.34,0,0,0,.2.33,1.78,1.78,0,0,0,.59.08c.34,0,.67,0,1,0a7.77,7.77,0,0,1,.8.11,2.83,2.83,0,0,1,1.17.48,1.83,1.83,0,0,1,.61.85,5.48,5.48,0,0,1,.22,1.32c0,.29,0,.6,0,.91s0,.72,0,1.17,0,1,0,1.68,0,1.5,0,2.5V77.86Zm-13,5.25c0-1.16,0-2.2,0-3.13s0-1.74,0-2.44a3.62,3.62,0,0,1,.44-1.85,1.88,1.88,0,0,1,1.33-.8l.7-.11.55,0a.94.94,0,0,0,.43-.08.31.31,0,0,0,.18-.29.35.35,0,0,0-.24-.37,1.64,1.64,0,0,0-.69-.09l-1.77,0-2,.07-1.71,0-1.82,0L28.53,74l-2.51,0a1.77,1.77,0,0,0-.73.09.36.36,0,0,0-.25.37.31.31,0,0,0,.2.29,1.16,1.16,0,0,0,.5.08c.34,0,.67,0,1,0a5.31,5.31,0,0,1,.8.11,2.92,2.92,0,0,1,1.19.48,1.75,1.75,0,0,1,.61.85,4.42,4.42,0,0,1,.2,1.32c0,.69,0,1.49,0,2.39s0,1.93,0,3.09v4.37a2.71,2.71,0,0,1-.18,1,1.39,1.39,0,0,1-.71.68,4.46,4.46,0,0,1-1.24.36,10.91,10.91,0,0,1-1.39.14c-.47,0-.91,0-1.32,0a17.28,17.28,0,0,1-5.44-.86,14.91,14.91,0,0,1-4.48-2.42,15.07,15.07,0,0,1-3.38-3.73A17.29,17.29,0,0,1,9.34,77.8a21,21,0,0,1-.74-5.65,21.88,21.88,0,0,1,.53-5,12.69,12.69,0,0,1,1.48-3.72,10.46,10.46,0,0,1,2.26-2.65,12.42,12.42,0,0,1,2.45-1.59,11.65,11.65,0,0,1,2.41-.86A13.79,13.79,0,0,1,20,58c.74-.05,1.42-.08,2.06-.07a18,18,0,0,1,3.64.36,16.48,16.48,0,0,1,3,.89A13.52,13.52,0,0,1,31,60.32a8.17,8.17,0,0,1,1.47,1.19,5.68,5.68,0,0,1,.91,1.34,6.44,6.44,0,0,1,.47,1.33c.09.43.16.82.2,1.19a1,1,0,0,0,.13.44.35.35,0,0,0,.33.16.39.39,0,0,0,.4-.21A1.89,1.89,0,0,0,35,65c0-1.44,0-2.64.06-3.57s.07-1.68.11-2.23.07-1,.11-1.23.05-.48.05-.59a.5.5,0,0,0-.12-.39.82.82,0,0,0-.53-.17,11.31,11.31,0,0,1-1.21-.11c-.44-.06-.88-.12-1.32-.2L31,56.31c-.24-.05-.65-.12-1.22-.19s-1.26-.17-2-.25-1.6-.16-2.45-.21-1.7-.09-2.51-.09a33.6,33.6,0,0,0-4,.18,21.6,21.6,0,0,0-4.17.85,20.33,20.33,0,0,0-4.35,2,15.34,15.34,0,0,0-3,2.4,16.93,16.93,0,0,0-2.59,3.36,18.16,18.16,0,0,0-1.79,4.28,19.88,19.88,0,0,0-.66,5.15A19.46,19.46,0,0,0,3.33,80.6a15.33,15.33,0,0,0,3.13,5.12,17.08,17.08,0,0,0,4.72,3.55,23.16,23.16,0,0,0,5.87,2,31.64,31.64,0,0,0,6.6.67c.91,0,1.87,0,2.86-.11s2-.19,3-.35a23.37,23.37,0,0,0,2.86-.64,13.27,13.27,0,0,0,2.51-1,1.45,1.45,0,0,0,.41-.3.94.94,0,0,0,.17-.45c0-.21,0-.51,0-.92Z"/><path class="cls-2" d="M184.23,60.55c0,.57.05,1.31.07,2.24l.24,18a4.73,4.73,0,0,0,.67,1h.08l-.55-19.76c0-.94,0-1.68-.06-2.25a7.07,7.07,0,0,0-.18-1.27,1.56,1.56,0,0,0-.33-.66.63.63,0,0,0-.29-.2,3.59,3.59,0,0,0-1.18-.37c-1.46,0,1.44,0,1.53,3.23"/><path class="cls-2" d="M123,61c-.17.45-.43,1.1-.77,2S121.44,64.83,121,66s-1,2.42-1.5,3.75-1.08,2.69-1.63,4.06-1.09,2.71-1.61,4l-.71,1.78-.4,1,0,1h.11c.29-.74.66-1.65,1.09-2.73s.19-.49.71-1.78,1.06-2.62,1.61-4L120.33,69l1.5-3.74c.46-1.17.87-2.19,1.21-3.06s.6-1.53.77-2,.24-.61.33-.92a6.83,6.83,0,0,0,.21-.79,1.56,1.56,0,0,0,0-.53.53.53,0,0,0-.21-.36,1.41,1.41,0,0,0-.51-.18,3.31,3.31,0,0,0-.55-.05c-1.36,0,1.21.13-.12,3.56"/><path class="cls-2" d="M110.77,90.39c.29.72.53,1.3.71,1.71A5.22,5.22,0,0,0,112,93a.52.52,0,0,0,.39.25c.14,0,.26-.1.34-.3a2.38,2.38,0,0,0,.16-.51.78.78,0,0,1-.15-.16,4.43,4.43,0,0,1-.48-.89c-.18-.41-.42-1-.71-1.7L99.73,61.29a13.21,13.21,0,0,0-1-1.95,3.88,3.88,0,0,0-.87-1,4,4,0,0,0-1-.55,2.47,2.47,0,0,0-.72-.16,2.66,2.66,0,0,0-.53,0C94.2,57.57,97,57.26,99,62Z"/><path class="cls-2" d="M60.2,73.4a3.73,3.73,0,0,0,.65-.39,5,5,0,0,0,1.23-1.31A7.3,7.3,0,0,0,63,69.6a11.6,11.6,0,0,0,.37-3,10.52,10.52,0,0,0-.44-3.16,7.14,7.14,0,0,0-1.14-2.24,6.31,6.31,0,0,0-1.58-1.45A6.92,6.92,0,0,0,58.47,59a6.74,6.74,0,0,0-1.65-.23c-.54,0-1,0-1.38,0a4.26,4.26,0,0,0-.9.14.43.43,0,0,0-.3.2.4.4,0,0,0-.07.19l.5,0c.38,0,.84,0,1.38,0a6.74,6.74,0,0,1,1.65.23,6.92,6.92,0,0,1,1.75.78A6.31,6.31,0,0,1,61,61.66a7.14,7.14,0,0,1,1.14,2.24,10.52,10.52,0,0,1,.44,3.16,11.6,11.6,0,0,1-.37,3,7.3,7.3,0,0,1-.93,2.1A5.12,5.12,0,0,1,60.2,73.4"/><path class="cls-2" d="M44.24,91.32a1,1,0,0,0-.32.09.31.31,0,0,0-.16.27A.38.38,0,0,0,44,92a1.73,1.73,0,0,0,.69.11l1.55,0,1.65,0,1.47,0,1,0,1,0,1.68,0,2.06,0,2.1,0a1.73,1.73,0,0,0,.69-.11.38.38,0,0,0,.24-.36.25.25,0,0,0,0-.08,2,2,0,0,1-.46,0l-2.1,0-2.06-.05-1.68,0-1,0-1,0-1.47,0-1.65.05-1.54,0a1.7,1.7,0,0,1-.69-.11.41.41,0,0,1-.22-.21"/><path class="cls-2" d="M47,78.61v3.88c0,1.21,0,2.29-.05,3.25s-.07,1.76-.12,2.39a11.37,11.37,0,0,1-.18,1.18,2.85,2.85,0,0,1-.2.66l.29-.08a.84.84,0,0,0,.55-.43,2.4,2.4,0,0,0,.31-.85,11.29,11.29,0,0,0,.17-1.17c.06-.64.1-1.43.12-2.4s0-2,0-3.24,0-2.51,0-3.89V66.59c0-1,0-1.76,0-2.41V62.57c0-.44,0-.81,0-1.12s0-.61,0-.88a5.92,5.92,0,0,0-.17-1.27,1.73,1.73,0,0,0-.46-.82,1.93,1.93,0,0,0-.89-.46,3.51,3.51,0,0,0-.61-.1,6.61,6.61,0,0,0-.77,0c-3.47,0,1.35.53,1.79,2.11a5.88,5.88,0,0,1,.16,1.26c0,.28,0,.58,0,.88s0,.69,0,1.12,0,1,0,1.62V78.61Z"/><path class="cls-2" d="M9.08,58.84l-.91.53A15.08,15.08,0,0,0,5.1,61.82a16.9,16.9,0,0,0-2.62,3.42A18.15,18.15,0,0,0,.67,69.59a21.25,21.25,0,0,0,.48,12.19A15.78,15.78,0,0,0,4.32,87a17.36,17.36,0,0,0,4.77,3.61A23.28,23.28,0,0,0,15,92.7a31.73,31.73,0,0,0,6.68.68c.92,0,1.89,0,2.89-.11s2-.19,3-.36a23.28,23.28,0,0,0,2.88-.65,13.69,13.69,0,0,0,2.55-1,1.26,1.26,0,0,0,.4-.31l0,0a13.91,13.91,0,0,1-1.72.62,22.12,22.12,0,0,1-2.89.66c-1,.16-2,.28-3,.35s-2,.11-2.89.11A31.57,31.57,0,0,1,16.28,92a23.49,23.49,0,0,1-5.94-2.09,17.27,17.27,0,0,1-4.76-3.61A15.46,15.46,0,0,1,2.41,81a21,21,0,0,1-.48-12.18A18,18,0,0,1,3.74,64.5a16.78,16.78,0,0,1,2.61-3.42,16.06,16.06,0,0,1,2.73-2.24"/><path class="cls-2" d="M28.17,76.53a2.29,2.29,0,0,1,.31.85,9.42,9.42,0,0,1,.09,1.32c0,.69,0,1.49,0,2.39s0,1.93,0,3.09v3.36a5.23,5.23,0,0,1-.09,1c0,.07,0,.13-.05.19a1.72,1.72,0,0,0,.32-.23,1.26,1.26,0,0,0,.35-.68,5.3,5.3,0,0,0,.09-1V83.46c0-1.16,0-2.19,0-3.09s0-1.7,0-2.39a8.11,8.11,0,0,0-.09-1.32,2.22,2.22,0,0,0-.31-.85,1.43,1.43,0,0,0-1-.59c-2.13-.29-.69-.29.37,1.31"/><path class="cls-2" d="M81.83,78.61c0,1.38,0,2.67,0,3.88s0,2.29,0,3.25-.07,1.76-.13,2.39a11.51,11.51,0,0,1-.17,1.18,3.44,3.44,0,0,1-.2.66l.29-.08a.84.84,0,0,0,.55-.43,2.87,2.87,0,0,0,.31-.85,11.29,11.29,0,0,0,.17-1.17c.05-.64.1-1.43.12-2.4s0-2,0-3.24V64.18c0-.64,0-1.18,0-1.61s0-.81,0-1.12,0-.61,0-.88a6,6,0,0,0-.16-1.27,1.82,1.82,0,0,0-.46-.82,1.91,1.91,0,0,0-.9-.46,3.35,3.35,0,0,0-.61-.1,6.52,6.52,0,0,0-.77,0c-3.46,0,1.36.53,1.79,2.11a5.82,5.82,0,0,1,.17,1.26c0,.28,0,.58,0,.88s0,.69,0,1.12v1.62c0,.65,0,1.45,0,2.4V78.61Z"/><path class="cls-2" d="M136.71,78.61c0,1.38,0,2.67,0,3.88s0,2.29,0,3.25-.07,1.76-.13,2.39a11.51,11.51,0,0,1-.17,1.18,3.44,3.44,0,0,1-.2.66l.29-.08a.84.84,0,0,0,.55-.43,2.87,2.87,0,0,0,.31-.85,11.29,11.29,0,0,0,.17-1.17c.06-.64.1-1.43.12-2.4s0-2,.05-3.24V64.18c0-.64,0-1.18,0-1.61s0-.81,0-1.12,0-.61,0-.88a6,6,0,0,0-.16-1.27,1.82,1.82,0,0,0-.46-.82,1.91,1.91,0,0,0-.9-.46,3.37,3.37,0,0,0-.6-.1,6.78,6.78,0,0,0-.78,0c-3.46,0,1.36.53,1.79,2.11a5.82,5.82,0,0,1,.17,1.26c0,.28,0,.58,0,.88s0,.69,0,1.12v1.62c0,.65,0,1.45,0,2.4V78.61Z"/><path class="cls-2" d="M157.88,55.37a.77.77,0,0,0-.52-.32c-.18,0-.31.16-.38.45a5.35,5.35,0,0,0-.1,1.17l-.33,28.24c0,1.37,0,2.47-.1,3.29a6.61,6.61,0,0,1-.33,1.84.35.35,0,0,1-.06.14l.33-.1a1.26,1.26,0,0,0,.71-.78,6.69,6.69,0,0,0,.33-1.84c.06-.82.09-1.92.1-3.3l.33-28.23a5,5,0,0,1,0-.56"/><path class="cls-3" d="M111.09,23c-5.35,9.16,0,27.49-16,27.49S84.35,32.11,79,23c0-4.22,5-3.57,4.46-6.62h23.17C106.13,19.38,111.09,18.73,111.09,23Z"/><path class="cls-4" d="M109.8,22.9c-4.92,8.43,0,26.16-14.76,26.16S85.2,31.33,80.28,22.9c0-3.89,4.57-2.41,4.11-5.22H105.7c-.46,2.81,4.1,1.33,4.1,5.22"/><path class="cls-5" d="M88.63,10.41h1.84c.09-1.2.67-4.87,4.5-4.87s4.53,3.69,4.65,4.87h1.81l-2.15.74h-.36v-.36S98.8,6.28,95,6.28s-3.78,4.48-3.78,4.5v.37h-.37Z"/><path class="cls-5" d="M88.17,10H90c0-.78.4-4.95,4.92-4.95s5,4.19,5.09,4.95H102l-2,.25h-.12v-.12S99.68,5.32,95,5.32s-4.67,4.82-4.67,4.83v.13h-.13Z"/><path class="cls-5" d="M87.66,9.73h2a5,5,0,0,1,5.26-5,5.22,5.22,0,0,1,5.46,5h2.08l-2.2.24h-.11V9.85a5,5,0,0,0-5.22-4.91c-5.07,0-5,4.89-5,4.91V10H89.8Z"/><path class="cls-2" d="M95,3.07c2.06,0,3.74,1.25,3.74,2.79v0a5.8,5.8,0,0,0-7.49,0v0c0-1.54,1.68-2.79,3.75-2.79"/><path class="cls-2" d="M94.55.62c-.4.73-.89.58-.92,1.08s.44.47.35.82a1.35,1.35,0,0,1-.25.45A4.93,4.93,0,0,1,95,2.81,4.85,4.85,0,0,1,96.18,3a1.35,1.35,0,0,1-.25-.45c-.09-.35.38-.33.35-.82s-.52-.35-.92-1.08-.41-.74-.81,0"/><path class="cls-2" d="M105.16,2.15l-.16.06a1.26,1.26,0,0,1,0,.28l-.16-.06-.2,0-.08.11.14.11-.34.17,0,.08c.07,0,.17,0,.22,0a4.48,4.48,0,0,0-.67.28l-.08.25.06.14-.64.41c.19.34.54,1.1.72.36l.25-.08.22.14c-.06,0,.09.32,0,.34-1.15.32-.72-.11-.45.57.11,0,.17.08.28,0,.29-.15.13-.19.42-.14l-.09.17-.41.08-.28.09a2,2,0,0,1-.47.13v0c-.54-.49-.25-.22-.64-.74a8.88,8.88,0,0,1-.66-.89l-.08-.77a.57.57,0,0,1-.23-.28L101.65,3l.13.2,0,.14-.28-.14c-.16.1-.12,0-.28,0a.45.45,0,0,0-.19.22v.09a.31.31,0,0,1,.28,0v.05c-.33.17-.19.21-.25.39l-.09.14.11.33h.06l.14-.27a.23.23,0,0,0,.19-.06,6.18,6.18,0,0,1,0,.86.39.39,0,0,0-.22-.08l-.08-.23-.17.09v.33l.06.06v.13l.11.14.14.06.36-.06.11-.11c0,.47-.06.39.19.64l.14-.17,0,.22a3.43,3.43,0,0,1,.14.5c.12-.21.09-.19.14-.5l0,0,0,.44a1.64,1.64,0,0,1,.16.36.81.81,0,0,0,.14-.33l.06.06,0,.36a.57.57,0,0,0-.22.19l.11.06,0,.08h0l0,0,.2,0-.09.12-.36.16-.36.22-.41.11-.25-.13-.31-.06a3.57,3.57,0,0,0-.38.14l-.12.3c.08-.05.14-.11.23-.11l.11.17c-.25.33-.21.17-.25.52l0,0,.14-.14.11.06a1.59,1.59,0,0,0,0,.61.44.44,0,0,0,.17.16c.09-.27,0-.21.25-.36a.57.57,0,0,1,.11-.22l.19-.14h.11a.41.41,0,0,1-.14.31l.06.25c-.08.1-.11.09-.11.22l.11,0,.36-.22.11-.25,0-.25h.2l.25.14h.14l-.09-.34a17.76,17.76,0,0,1,1.8,1l.58,0,.48.14c-.21.12-.75.44-.89.55-1.28,1.18-.34.93-.19,1.55l0,.39-.25.22-.42.05c-.37,0-.12-.05-.44.2-.09.07-.14.07-.08.27l.11-.05.11.05c0,.1-.08.2-.08.28l.08.28c.11-.14.08-.13.25-.19l.11.11,0,.19.13.17h0l.06-.25a.69.69,0,0,0,.33-.22,1.29,1.29,0,0,0,.36.44v-.22l.11-.09.06-.27-.09-.25,0-.14.33.19h0l-.08-.36a.55.55,0,0,0,.39.14.53.53,0,0,1-.09-.39,1,1,0,0,0,.39.11l-.25-.38v-.36l-.3-.36,0-.14s0,0,.08-.06h.42c.13,0,.6-.12.69-.11l.14.06.06.36c.87.75.28.32,1.44.83l.08.14v.49l-.11.39c-.62-.09-.24,0-.78.09l-.14.3.2,0v.11l-.06,0,0,.39,0,0a.69.69,0,0,1,.17-.17c.2.2,0,.15.25.44h.08l0-.11.22-.19.11,0c.08.11.06.11.06.25l.14.14c0-.09,0-.11.05-.17l.22-.16.09-.36c0-.1.24-.25.24-.36l.36,0c-.15-.3-.1-.13-.22-.24l-.11-.17.06-.2.33.09c-.13-.17-.07-.13-.14-.28l-.16-.25,0,0a.92.92,0,0,0,.36.13c0-.07-.06-.14-.08-.22-.11-.34,0-.17-.3-.44l0-.3-.11-.2-.45-.14-.33-.19-.14-.36.14-.64.69.17c1-.09,1.41-.41,1.36-1.44l-.17-.33a4.7,4.7,0,0,0-.8-.61c-.73-.83-.94-.36-.64.08l-.33.08-.36.14-.39,0-.22-.25V7.41l.2-.14.14.06,0,.47.17.14.33-.08-.14-.06c0-2.33.91,0,1.72,0-1.55-4.58-.7-2.23-2.11-1.88-.11.33-.1.2,0,.55a9,9,0,0,0-.69.67l-.11.3,0,.39c0,.06.06.08.06.16s.24.32.3.36l.47.17.31,0-.14.28c.42.17.22.58.74.58,0-.5-.08-1,.7-1l.5.27.11.25c0,.53-.13.71-.59.94l-.6,0a3.13,3.13,0,0,1-.61-.39L107.9,9l-.74-.44-.61-.44V7.86l0-.34.17-.58.27-.5.14.09a1,1,0,0,1,.17-.75l.16.08V5.39l-.11-.5,0-.16.19,0s.12-.13.12-.19l-.14,0-.06-.14V4l-.14-.2c.14-.24.11-.16.11-.44l-.22.05L106.85,3l-.52-.33a3.2,3.2,0,0,1-.78-.2c-.18-.13-.07-.16-.39-.36"/><path class="cls-2" d="M95,8.34c.78,0,1.42,1.32,1.42,2.94s-.64,2.94-1.42,2.94-1.41-1.32-1.41-2.94S94.26,8.34,95,8.34m-5.37,6.19h.63V12.77h1.55v-.42H89.67Zm11,0H100V12.77H98.46v-.42h2.18Zm.9-.52V11.48H98.46c0-.07,0,.76,0-.21s-.19-4.43-3.4-4.43-3.4,3.45-3.4,4.43,0,.14,0,.21H88.6V14H83.46l-.56,1h24.18l-.46-1Z"/><path class="cls-2" d="M95,0a.42.42,0,0,1,.43.42.43.43,0,0,1-.85,0A.42.42,0,0,1,95,0"/><path class="cls-2" d="M85,2.15l.16.06a1.26,1.26,0,0,0-.05.28l.17-.06.19,0,.08.11-.14.11.34.17,0,.08c-.07,0-.17,0-.22,0a4.08,4.08,0,0,1,.67.28l.08.25-.06.14.64.41c-.19.34-.53,1.1-.72.36l-.25-.08-.22.14c.06,0-.09.32,0,.34,1.16.32.72-.11.45.57-.11,0-.17.08-.28,0-.28-.15-.12-.19-.42-.14l.09.17.41.08.28.09a2,2,0,0,0,.47.13v0A2.29,2.29,0,0,0,87.32,5,8.88,8.88,0,0,0,88,4.09l.08-.77A.57.57,0,0,0,88.29,3L88.54,3l-.14.2,0,.14.27-.14c.16.1.12,0,.28,0a.45.45,0,0,1,.19.22v.09a.29.29,0,0,0-.27,0v.05c.32.17.18.21.24.39l.09.14-.11.33h-.06l-.14-.27a.23.23,0,0,1-.19-.06,6.18,6.18,0,0,0,0,.86A.42.42,0,0,1,89,4.87l.08-.23.17.09v.33l-.06.06v.13l-.11.14-.14.06-.36-.06-.11-.11c0,.47.06.39-.19.64l-.14-.17,0,.22a3.43,3.43,0,0,0-.14.5c-.12-.21-.09-.19-.13-.5l-.06,0,0,.44a1.64,1.64,0,0,0-.16.36.81.81,0,0,1-.14-.33l-.06.06-.05.36a.51.51,0,0,1,.22.19l-.11.06,0,.08h0l0,0-.2,0,.09.12.36.16.36.22.41.11.25-.13.31-.06a3.71,3.71,0,0,1,.39.14l.11.3c-.08-.05-.13-.11-.23-.11l-.11.17c.25.33.21.17.25.52l0,0-.14-.14-.11.06a1.59,1.59,0,0,1,0,.61.38.38,0,0,1-.17.16c-.09-.27,0-.21-.25-.36a.57.57,0,0,0-.11-.22l-.19-.14h-.11a.41.41,0,0,0,.14.31l-.06.25c.09.1.11.09.11.22l-.11,0-.36-.22L88,9.05l0-.25h-.2l-.25.14h-.14l.09-.34a17.76,17.76,0,0,0-1.8,1l-.58,0-.47.14c.2.12.74.44.88.55,1.28,1.18.34.93.2,1.55l0,.39.25.22.42.05c.37,0,.12-.05.44.2.09.07.14.07.08.27l-.11-.05-.11.05c0,.1.08.2.09.28l-.09.28c-.11-.14-.08-.13-.25-.19l-.11.11,0,.19-.13.17h0L86,13.48a.69.69,0,0,1-.33-.22,1.29,1.29,0,0,1-.36.44v-.22l-.11-.09-.06-.27.09-.25,0-.14-.34.19h0l.08-.36a.55.55,0,0,1-.39.14.53.53,0,0,0,.09-.39.92.92,0,0,1-.39.11l.25-.38v-.36l.3-.36,0-.14s0,0-.08-.06h-.42c-.13,0-.6-.12-.69-.11l-.14.06,0,.36c-.88.75-.29.32-1.45.83L82,12.4v.49l.11.39c.62-.09.24,0,.78.09l.14.3-.2,0v.11l.06,0,0,.39,0,0a.69.69,0,0,0-.17-.17c-.2.2,0,.15-.25.44h-.08l0-.11-.22-.19-.11,0c-.08.11-.06.11-.06.25l-.13.14c0-.09,0-.11-.06-.17l-.22-.16-.08-.36c0-.1-.25-.25-.25-.36l-.36,0c.15-.3.1-.13.22-.24l.11-.17-.06-.2-.33.09c.13-.17.07-.13.14-.28l.17-.25,0,0a.92.92,0,0,1-.36.13c0-.07.06-.14.08-.22.11-.34,0-.17.31-.44l0-.3.11-.2.45-.14L82,11l.14-.36L82,10l-.69.17c-1-.09-1.41-.41-1.36-1.44l.17-.33a4.7,4.7,0,0,1,.8-.61c.73-.83,1-.36.64.08l.33.08.36.14.39,0,.22-.25V7.41l-.2-.14-.13.06-.06.47-.17.14L82,7.86l.14-.06c0-2.33-.91,0-1.72,0,1.55-4.58.7-2.23,2.11-1.88.11.33.1.2,0,.55a9,9,0,0,1,.69.67l.11.3,0,.39c0,.06,0,.08,0,.16s-.25.32-.31.36l-.47.17-.3,0,.13.28c-.42.17-.22.58-.74.58,0-.5.08-1-.7-1l-.49.27-.12.25c0,.53.13.71.59.94l.61,0a3.4,3.4,0,0,0,.6-.39L82.28,9,83,8.55l.61-.44V7.86l0-.34-.16-.58-.28-.5-.14.09a1,1,0,0,0-.17-.75l-.16.08V5.39l.11-.5,0-.16-.19,0s-.11-.13-.11-.19l.13,0,.06-.14V4l.14-.2c-.14-.24-.11-.16-.11-.44l.22.05L83.33,3l.52-.33a3.2,3.2,0,0,0,.78-.2c.18-.13.07-.16.39-.36"/><path class="cls-4" d="M95,8.34c.78,0,1.42,1.32,1.42,2.94s-.64,2.94-1.42,2.94-1.41-1.32-1.41-2.94S94.26,8.34,95,8.34"/><path class="cls-6" d="M95.63,12.1a.14.14,0,0,1,0,.06l0,0a.19.19,0,0,1-.09,0l-.11,0h-.11a1.15,1.15,0,0,1-.26,0l-.24-.09a1.3,1.3,0,0,1-.23-.18.29.29,0,0,1-.07-.08.62.62,0,0,1-.08-.12.69.69,0,0,1-.07-.15,1.17,1.17,0,0,1-.06-.2,1.5,1.5,0,0,1,0-.22,1,1,0,0,1,0-.3.85.85,0,0,1,.09-.24.61.61,0,0,1,.15-.17l.15-.1.16,0,.15,0h.13l.25,0,.19,0,.14.08.08.08,0,.06a.64.64,0,0,0,0,.07.07.07,0,0,0,0,0v0h0v-.22a.54.54,0,0,0,0-.11s0-.06,0-.07v-.06h-.18l-.07,0h-.17l-.12,0H95a1.23,1.23,0,0,0-.25.05,1,1,0,0,0-.26.11.8.8,0,0,0-.17.15,1,1,0,0,0-.15.2A.82.82,0,0,0,94,11a1.14,1.14,0,0,0,0,.56.81.81,0,0,0,.07.22,1.18,1.18,0,0,0,.11.19.77.77,0,0,0,.12.13,1.11,1.11,0,0,0,.24.16l.25.09a1.2,1.2,0,0,0,.24,0h.32l.16,0,.15,0,.15-.06,0,0v-.55a.31.31,0,0,1,0-.1v-.09a.36.36,0,0,1,0-.11.12.12,0,0,1,.08,0h.09v0H95.4v0h.11l.07,0a.1.1,0,0,1,0,.05s0,0,0,.08v.61Z"/><path class="cls-7" d="M95.05,8.5c.71,0,1.28,1.11,1.28,2.47v.1c0-1.31-.59-2.2-1.28-2.2s-1.25.89-1.27,2.2a.31.31,0,0,1,0-.1c0-1.36.58-2.47,1.28-2.47"/><path class="cls-7" d="M95.05,14c.71,0,1.28-1.1,1.28-2.47v-.1c0,1.31-.59,2.2-1.28,2.2s-1.25-.89-1.27-2.2a.34.34,0,0,0,0,.1c0,1.37.58,2.47,1.28,2.47"/><polygon class="cls-2" points="83.1 20.52 83.1 20.62 83.08 20.53 83.1 20.52"/><path class="cls-2" d="M83.35,20.42v.2l.06-.23Zm1.72-1.52h-.15v0Z"/><polygon class="cls-2" points="85.07 18.85 84.92 18.85 84.92 18.82 85.07 18.85"/><polygon class="cls-2" points="85.31 18.9 87.04 18.9 87.04 20.62 86.7 19.23 85.31 18.9"/><polygon class="cls-2" points="89.01 18.9 87.29 18.9 87.29 20.62 87.63 19.23 89.01 18.9"/><polygon class="cls-2" points="85.31 18.85 87.04 18.85 87.04 18.43 86.72 18.43 86.7 18.52 85.31 18.85"/><polygon class="cls-2" points="89.01 18.85 87.29 18.85 87.29 18.43 87.6 18.43 87.63 18.52 89.01 18.85"/><polygon class="cls-2" points="89.25 18.9 90.98 18.9 90.98 20.62 90.64 19.23 89.25 18.9"/><polygon class="cls-2" points="92.95 18.9 91.23 18.9 91.23 20.62 91.57 19.23 92.95 18.9"/><polygon class="cls-2" points="89.25 18.85 90.98 18.85 90.98 18.43 90.66 18.43 90.64 18.52 89.25 18.85"/><polygon class="cls-2" points="92.95 18.85 91.23 18.85 91.23 18.43 91.54 18.43 91.57 18.52 92.95 18.85"/><polygon class="cls-2" points="93.19 18.9 94.92 18.9 94.92 20.62 94.58 19.23 93.19 18.9"/><polygon class="cls-2" points="96.89 18.9 95.17 18.9 95.17 20.62 95.5 19.23 96.89 18.9"/><polygon class="cls-2" points="93.19 18.85 94.92 18.85 94.92 18.43 94.6 18.43 94.58 18.52 93.19 18.85"/><polygon class="cls-2" points="96.89 18.85 95.17 18.85 95.17 18.43 95.48 18.43 95.5 18.52 96.89 18.85"/><polygon class="cls-2" points="81.14 22.52 81.08 22.52 81.07 22.54 81.14 22.52"/><polygon class="cls-2" points="81.14 22.48 81.09 22.48 81.09 22.46 81.14 22.48"/><polygon class="cls-2" points="81.37 22.52 83.1 22.52 83.1 24.25 82.76 22.86 81.37 22.52"/><polygon class="cls-2" points="85.07 22.52 83.35 22.52 83.35 24.25 83.69 22.86 85.07 22.52"/><polygon class="cls-2" points="81.37 22.48 83.1 22.48 83.1 20.75 82.76 22.14 81.37 22.48"/><polygon class="cls-2" points="85.07 22.48 83.35 22.48 83.35 20.75 83.69 22.14 85.07 22.48"/><path class="cls-2" d="M82.16,26.15h.94v1.72l-.34-1.39-.53-.13a1.59,1.59,0,0,0-.07-.2"/><polygon class="cls-2" points="85.07 26.15 83.35 26.15 83.35 27.87 83.69 26.48 85.07 26.15"/><path class="cls-2" d="M82.15,26.1h.95V24.38l-.34,1.38-.67.17.06.17"/><polygon class="cls-2" points="85.07 26.1 83.35 26.1 83.35 24.38 83.69 25.76 85.07 26.1"/><path class="cls-2" d="M83,29.77h.08v.43c0-.14,0-.29-.08-.43"/><polygon class="cls-2" points="85.07 29.77 83.35 29.77 83.35 31.49 83.69 30.11 85.07 29.77"/><path class="cls-2" d="M83,29.72h.09V28l-.23.95c0,.25.1.51.14.77"/><polygon class="cls-2" points="85.07 29.72 83.35 29.72 83.35 28 83.69 29.39 85.07 29.72"/><polygon class="cls-2" points="85.07 33.39 83.58 33.39 83.65 33.88 83.69 33.73 85.07 33.39"/><path class="cls-2" d="M85.07,33.35h-1.5c-.07-.52-.14-1-.22-1.55v-.18L83.69,33Z"/><polygon class="cls-2" points="85.31 22.52 87.04 22.52 87.04 24.25 86.7 22.86 85.31 22.52"/><polygon class="cls-2" points="89.01 22.52 87.29 22.52 87.29 24.25 87.63 22.86 89.01 22.52"/><polygon class="cls-2" points="85.31 22.48 87.04 22.48 87.04 20.75 86.7 22.14 85.31 22.48"/><polygon class="cls-2" points="89.01 22.48 87.29 22.48 87.29 20.75 87.63 22.14 89.01 22.48"/><polygon class="cls-2" points="85.31 26.15 87.04 26.15 87.04 27.87 86.7 26.48 85.31 26.15"/><polygon class="cls-2" points="89.01 26.15 87.29 26.15 87.29 27.87 87.63 26.48 89.01 26.15"/><polygon class="cls-2" points="85.31 26.1 87.04 26.1 87.04 24.38 86.7 25.76 85.31 26.1"/><polygon class="cls-2" points="89.01 26.1 87.29 26.1 87.29 24.38 87.63 25.76 89.01 26.1"/><polygon class="cls-2" points="85.31 29.77 87.04 29.77 87.04 31.49 86.7 30.11 85.31 29.77"/><polygon class="cls-2" points="89.01 29.77 87.29 29.77 87.29 31.49 87.63 30.11 89.01 29.77"/><polygon class="cls-2" points="85.31 29.72 87.04 29.72 87.04 28 86.7 29.39 85.31 29.72"/><polygon class="cls-2" points="89.01 29.72 87.29 29.72 87.29 28 87.63 29.39 89.01 29.72"/><polygon class="cls-2" points="85.31 33.39 87.04 33.39 87.04 35.12 86.7 33.73 85.31 33.39"/><polygon class="cls-2" points="89.01 33.39 87.29 33.39 87.29 35.12 87.63 33.73 89.01 33.39"/><polygon class="cls-2" points="85.31 33.35 87.04 33.35 87.04 31.62 86.7 33.01 85.31 33.35"/><polygon class="cls-2" points="89.01 33.35 87.29 33.35 87.29 31.62 87.63 33.01 89.01 33.35"/><polygon class="cls-2" points="89.25 22.52 90.98 22.52 90.98 24.25 90.64 22.86 89.25 22.52"/><polygon class="cls-2" points="92.95 22.52 91.23 22.52 91.23 24.25 91.57 22.86 92.95 22.52"/><polygon class="cls-2" points="89.25 22.48 90.98 22.48 90.98 20.75 90.64 22.14 89.25 22.48"/><polygon class="cls-2" points="92.95 22.48 91.23 22.48 91.23 20.75 91.57 22.14 92.95 22.48"/><polygon class="cls-2" points="89.25 26.15 90.98 26.15 90.98 27.87 90.64 26.48 89.25 26.15"/><polygon class="cls-2" points="92.95 26.15 91.23 26.15 91.23 27.87 91.57 26.48 92.95 26.15"/><polygon class="cls-2" points="89.25 26.1 90.98 26.1 90.98 24.38 90.64 25.76 89.25 26.1"/><polygon class="cls-2" points="92.95 26.1 91.23 26.1 91.23 24.38 91.57 25.76 92.95 26.1"/><polygon class="cls-2" points="89.25 29.77 90.98 29.77 90.98 31.49 90.64 30.11 89.25 29.77"/><polygon class="cls-2" points="92.95 29.77 91.23 29.77 91.23 31.49 91.57 30.11 92.95 29.77"/><polygon class="cls-2" points="89.25 29.72 90.98 29.72 90.98 28 90.64 29.39 89.25 29.72"/><polygon class="cls-2" points="92.95 29.72 91.23 29.72 91.23 28 91.57 29.39 92.95 29.72"/><polygon class="cls-2" points="89.25 33.39 90.98 33.39 90.98 35.12 90.64 33.73 89.25 33.39"/><polygon class="cls-2" points="92.95 33.39 91.23 33.39 91.23 35.12 91.57 33.73 92.95 33.39"/><polygon class="cls-2" points="89.25 33.35 90.98 33.35 90.98 31.62 90.64 33.01 89.25 33.35"/><polygon class="cls-2" points="92.95 33.35 91.23 33.35 91.23 31.62 91.57 33.01 92.95 33.35"/><polygon class="cls-2" points="93.19 22.52 94.92 22.52 94.92 24.25 94.58 22.86 93.19 22.52"/><polygon class="cls-2" points="96.89 22.52 95.17 22.52 95.17 24.25 95.5 22.86 96.89 22.52"/><polygon class="cls-2" points="93.19 22.48 94.92 22.48 94.92 20.75 94.58 22.14 93.19 22.48"/><polygon class="cls-2" points="96.89 22.48 95.17 22.48 95.17 20.75 95.5 22.14 96.89 22.48"/><polygon class="cls-2" points="93.19 26.15 94.92 26.15 94.92 27.87 94.58 26.48 93.19 26.15"/><polygon class="cls-2" points="96.89 26.15 95.17 26.15 95.17 27.87 95.5 26.48 96.89 26.15"/><polygon class="cls-2" points="93.19 26.1 94.92 26.1 94.92 24.38 94.58 25.76 93.19 26.1"/><polygon class="cls-2" points="96.89 26.1 95.17 26.1 95.17 24.38 95.5 25.76 96.89 26.1"/><polygon class="cls-2" points="93.19 29.77 94.92 29.77 94.92 31.49 94.58 30.11 93.19 29.77"/><polygon class="cls-2" points="96.89 29.77 95.17 29.77 95.17 31.49 95.5 30.11 96.89 29.77"/><polygon class="cls-2" points="93.19 29.72 94.92 29.72 94.92 28 94.58 29.39 93.19 29.72"/><polygon class="cls-2" points="96.89 29.72 95.17 29.72 95.17 28 95.5 29.39 96.89 29.72"/><polygon class="cls-2" points="93.19 33.39 94.92 33.39 94.92 35.12 94.58 33.73 93.19 33.39"/><polygon class="cls-2" points="96.89 33.39 95.17 33.39 95.17 35.12 95.5 33.73 96.89 33.39"/><polygon class="cls-2" points="93.19 33.35 94.92 33.35 94.92 31.62 94.58 33.01 93.19 33.35"/><polygon class="cls-2" points="96.89 33.35 95.17 33.35 95.17 31.62 95.5 33.01 96.89 33.35"/><polygon class="cls-2" points="93.19 18.9 94.92 18.9 94.92 20.62 94.58 19.23 93.19 18.9"/><polygon class="cls-2" points="96.89 18.9 95.17 18.9 95.17 20.62 95.5 19.23 96.89 18.9"/><polygon class="cls-2" points="93.19 18.85 94.92 18.85 94.92 18.43 94.6 18.43 94.58 18.52 93.19 18.85"/><polygon class="cls-2" points="96.89 18.85 95.17 18.85 95.17 18.43 95.48 18.43 95.5 18.52 96.89 18.85"/><polygon class="cls-2" points="97.13 18.9 98.86 18.9 98.86 20.62 98.52 19.23 97.13 18.9"/><polygon class="cls-2" points="100.83 18.9 99.11 18.9 99.11 20.62 99.44 19.23 100.83 18.9"/><polygon class="cls-2" points="97.13 18.85 98.86 18.85 98.86 18.43 98.54 18.43 98.52 18.52 97.13 18.85"/><polygon class="cls-2" points="100.83 18.85 99.11 18.85 99.11 18.43 99.42 18.43 99.44 18.52 100.83 18.85"/><polygon class="cls-2" points="101.07 18.9 102.8 18.9 102.8 20.62 102.46 19.23 101.07 18.9"/><polygon class="cls-2" points="104.77 18.9 103.05 18.9 103.05 20.62 103.38 19.23 104.77 18.9"/><polygon class="cls-2" points="101.07 18.85 102.8 18.85 102.8 18.43 102.48 18.43 102.46 18.52 101.07 18.85"/><polygon class="cls-2" points="104.77 18.85 103.05 18.85 103.05 18.43 103.36 18.43 103.38 18.52 104.77 18.85"/><path class="cls-2" d="M106.73,20.42v.2l0-.23ZM105,18.9h.15v0Z"/><polygon class="cls-2" points="106.99 20.52 106.99 20.62 107.01 20.53 106.99 20.52"/><polygon class="cls-2" points="105.01 18.85 105.16 18.85 105.16 18.82 105.01 18.85"/><polygon class="cls-2" points="93.19 22.52 94.92 22.52 94.92 24.25 94.58 22.86 93.19 22.52"/><polygon class="cls-2" points="96.89 22.52 95.17 22.52 95.17 24.25 95.5 22.86 96.89 22.52"/><polygon class="cls-2" points="93.19 22.48 94.92 22.48 94.92 20.75 94.58 22.14 93.19 22.48"/><polygon class="cls-2" points="96.89 22.48 95.17 22.48 95.17 20.75 95.5 22.14 96.89 22.48"/><polygon class="cls-2" points="93.19 26.15 94.92 26.15 94.92 27.87 94.58 26.48 93.19 26.15"/><polygon class="cls-2" points="96.89 26.15 95.17 26.15 95.17 27.87 95.5 26.48 96.89 26.15"/><polygon class="cls-2" points="93.19 26.1 94.92 26.1 94.92 24.38 94.58 25.76 93.19 26.1"/><polygon class="cls-2" points="96.89 26.1 95.17 26.1 95.17 24.38 95.5 25.76 96.89 26.1"/><polygon class="cls-2" points="93.19 29.77 94.92 29.77 94.92 31.49 94.58 30.11 93.19 29.77"/><polygon class="cls-2" points="96.89 29.77 95.17 29.77 95.17 31.49 95.5 30.11 96.89 29.77"/><polygon class="cls-2" points="93.19 29.72 94.92 29.72 94.92 28 94.58 29.39 93.19 29.72"/><polygon class="cls-2" points="96.89 29.72 95.17 29.72 95.17 28 95.5 29.39 96.89 29.72"/><polygon class="cls-2" points="93.19 33.39 94.92 33.39 94.92 35.12 94.58 33.73 93.19 33.39"/><polygon class="cls-2" points="96.89 33.39 95.17 33.39 95.17 35.12 95.5 33.73 96.89 33.39"/><polygon class="cls-2" points="93.19 33.35 94.92 33.35 94.92 31.62 94.58 33.01 93.19 33.35"/><polygon class="cls-2" points="96.89 33.35 95.17 33.35 95.17 31.62 95.5 33.01 96.89 33.35"/><polygon class="cls-2" points="97.13 22.52 98.86 22.52 98.86 24.25 98.52 22.86 97.13 22.52"/><polygon class="cls-2" points="100.83 22.52 99.11 22.52 99.11 24.25 99.44 22.86 100.83 22.52"/><polygon class="cls-2" points="97.13 22.48 98.86 22.48 98.86 20.75 98.52 22.14 97.13 22.48"/><polygon class="cls-2" points="100.83 22.48 99.11 22.48 99.11 20.75 99.44 22.14 100.83 22.48"/><polygon class="cls-2" points="97.13 26.15 98.86 26.15 98.86 27.87 98.52 26.48 97.13 26.15"/><polygon class="cls-2" points="100.83 26.15 99.11 26.15 99.11 27.87 99.44 26.48 100.83 26.15"/><polygon class="cls-2" points="97.13 26.1 98.86 26.1 98.86 24.38 98.52 25.76 97.13 26.1"/><polygon class="cls-2" points="100.83 26.1 99.11 26.1 99.11 24.38 99.44 25.76 100.83 26.1"/><polygon class="cls-2" points="97.13 29.77 98.86 29.77 98.86 31.49 98.52 30.11 97.13 29.77"/><polygon class="cls-2" points="100.83 29.77 99.11 29.77 99.11 31.49 99.44 30.11 100.83 29.77"/><polygon class="cls-2" points="97.13 29.72 98.86 29.72 98.86 28 98.52 29.39 97.13 29.72"/><polygon class="cls-2" points="100.83 29.72 99.11 29.72 99.11 28 99.44 29.39 100.83 29.72"/><polygon class="cls-2" points="97.13 33.39 98.86 33.39 98.86 35.12 98.52 33.73 97.13 33.39"/><polygon class="cls-2" points="100.83 33.39 99.11 33.39 99.11 35.12 99.44 33.73 100.83 33.39"/><polygon class="cls-2" points="97.13 33.35 98.86 33.35 98.86 31.62 98.52 33.01 97.13 33.35"/><polygon class="cls-2" points="100.83 33.35 99.11 33.35 99.11 31.62 99.44 33.01 100.83 33.35"/><polygon class="cls-2" points="101.07 22.52 102.8 22.52 102.8 24.25 102.46 22.86 101.07 22.52"/><polygon class="cls-2" points="104.77 22.52 103.05 22.52 103.05 24.25 103.38 22.86 104.77 22.52"/><polygon class="cls-2" points="101.07 22.48 102.8 22.48 102.8 20.75 102.46 22.14 101.07 22.48"/><polygon class="cls-2" points="104.77 22.48 103.05 22.48 103.05 20.75 103.38 22.14 104.77 22.48"/><polygon class="cls-2" points="101.07 26.15 102.8 26.15 102.8 27.87 102.46 26.48 101.07 26.15"/><polygon class="cls-2" points="104.77 26.15 103.05 26.15 103.05 27.87 103.38 26.48 104.77 26.15"/><polygon class="cls-2" points="101.07 26.1 102.8 26.1 102.8 24.38 102.46 25.76 101.07 26.1"/><polygon class="cls-2" points="104.77 26.1 103.05 26.1 103.05 24.38 103.38 25.76 104.77 26.1"/><polygon class="cls-2" points="101.07 29.77 102.8 29.77 102.8 31.49 102.46 30.11 101.07 29.77"/><polygon class="cls-2" points="104.77 29.77 103.05 29.77 103.05 31.49 103.38 30.11 104.77 29.77"/><polygon class="cls-2" points="101.07 29.72 102.8 29.72 102.8 28 102.46 29.39 101.07 29.72"/><polygon class="cls-2" points="104.77 29.72 103.05 29.72 103.05 28 103.38 29.39 104.77 29.72"/><polygon class="cls-2" points="101.07 33.39 102.8 33.39 102.8 35.12 102.46 33.73 101.07 33.39"/><polygon class="cls-2" points="104.77 33.39 103.05 33.39 103.05 35.12 103.38 33.73 104.77 33.39"/><polygon class="cls-2" points="101.07 33.35 102.8 33.35 102.8 31.62 102.46 33.01 101.07 33.35"/><polygon class="cls-2" points="104.77 33.35 103.05 33.35 103.05 31.62 103.38 33.01 104.77 33.35"/><polygon class="cls-2" points="105.01 22.52 106.73 22.52 106.73 24.25 106.4 22.86 105.01 22.52"/><polygon class="cls-2" points="108.71 22.52 106.99 22.52 106.99 24.25 107.32 22.86 108.71 22.52"/><polygon class="cls-2" points="105.01 22.48 106.73 22.48 106.73 20.75 106.4 22.14 105.01 22.48"/><polygon class="cls-2" points="108.71 22.48 106.99 22.48 106.99 20.75 107.32 22.14 108.71 22.48"/><polygon class="cls-2" points="105.01 26.15 106.73 26.15 106.73 27.87 106.4 26.48 105.01 26.15"/><path class="cls-2" d="M107.92,26.15H107v1.72l.33-1.39.53-.13a1.59,1.59,0,0,0,.07-.2"/><polygon class="cls-2" points="105.01 26.1 106.73 26.1 106.73 24.38 106.4 25.76 105.01 26.1"/><path class="cls-2" d="M107.94,26.1h-1V24.38l.33,1.38.67.17a.84.84,0,0,0,0,.17"/><polygon class="cls-2" points="105.01 29.77 106.73 29.77 106.73 31.49 106.4 30.11 105.01 29.77"/><path class="cls-2" d="M107.06,29.77H107v.43c0-.14.05-.29.07-.43"/><polygon class="cls-2" points="105.01 29.72 106.73 29.72 106.73 28 106.4 29.39 105.01 29.72"/><path class="cls-2" d="M107.07,29.72H107V28l.23.95-.15.77"/><polygon class="cls-2" points="105.01 33.39 106.5 33.39 106.44 33.88 106.4 33.73 105.01 33.39"/><path class="cls-2" d="M105,33.35h1.5c.07-.52.15-1,.22-1.55v-.18L106.4,33Z"/><polygon class="cls-2" points="108.95 22.52 109.01 22.52 109.01 22.54 108.95 22.52"/><polygon class="cls-2" points="108.95 22.48 109 22.48 109 22.46 108.95 22.48"/><path class="cls-2" d="M91,47.71V46.12l-.34,1.38-.13,0,.47.17"/><path class="cls-2" d="M93,47.84H91.39l-.16-.05V46.12l.34,1.38Z"/><path class="cls-2" d="M93,47.89h-1.4c.23.06.47.12.71.16Z"/><polygon class="cls-2" points="93.19 47.84 94.92 47.84 94.92 46.12 94.58 47.51 93.19 47.84"/><polygon class="cls-2" points="96.89 47.84 95.17 47.84 95.17 46.12 95.5 47.51 96.89 47.84"/><path class="cls-2" d="M93.19,47.89h1.73v.42H94.6l0-.09Z"/><path class="cls-2" d="M96.89,47.89H95.17v.42h.31l0-.09Z"/><polygon class="cls-2" points="85.08 40.59 84.94 40.59 84.94 40.56 85.08 40.59"/><polygon class="cls-2" points="85.08 40.64 84.96 40.64 84.97 40.67 85.08 40.64"/><polygon class="cls-2" points="85.08 36.97 84.12 36.97 84.08 36.73 85.08 36.97"/><polygon class="cls-2" points="85.08 37.02 84.13 37.02 84.17 37.24 85.08 37.02"/><path class="cls-2" d="M85.07,33.35h-1.5c-.07-.52-.14-1-.22-1.55v-.18L83.69,33Z"/><polygon class="cls-2" points="85.08 33.39 83.58 33.39 83.65 33.88 83.69 33.73 85.08 33.39"/><path class="cls-2" d="M86.54,44.22H87V42.49l-.34,1.39-.32.08.16.26"/><polygon class="cls-2" points="89.01 44.22 87.29 44.22 87.29 42.49 87.63 43.88 89.01 44.22"/><path class="cls-2" d="M86.57,44.26H87v.66a7.85,7.85,0,0,1-.47-.66"/><path class="cls-2" d="M89,44.26H87.29v1l.14.16.2-.79Z"/><polygon class="cls-2" points="85.31 40.59 87.04 40.59 87.04 38.87 86.7 40.26 85.31 40.59"/><polygon class="cls-2" points="89.01 40.59 87.29 40.59 87.29 38.87 87.63 40.26 89.01 40.59"/><polygon class="cls-2" points="85.31 40.64 87.04 40.64 87.04 42.36 86.7 40.98 85.31 40.64"/><polygon class="cls-2" points="89.01 40.64 87.29 40.64 87.29 42.36 87.63 40.98 89.01 40.64"/><polygon class="cls-2" points="85.31 36.97 87.04 36.97 87.04 35.25 86.7 36.63 85.31 36.97"/><polygon class="cls-2" points="89.01 36.97 87.29 36.97 87.29 35.25 87.63 36.63 89.01 36.97"/><polygon class="cls-2" points="85.31 37.02 87.04 37.02 87.04 38.74 86.7 37.35 85.31 37.02"/><polygon class="cls-2" points="89.01 37.02 87.29 37.02 87.29 38.74 87.63 37.35 89.01 37.02"/><polygon class="cls-2" points="85.31 33.35 87.04 33.35 87.04 31.62 86.7 33.01 85.31 33.35"/><polygon class="cls-2" points="89.01 33.35 87.29 33.35 87.29 31.62 87.63 33.01 89.01 33.35"/><polygon class="cls-2" points="85.31 33.39 87.04 33.39 87.04 35.12 86.7 33.73 85.31 33.39"/><polygon class="cls-2" points="89.01 33.39 87.29 33.39 87.29 35.12 87.63 33.73 89.01 33.39"/><polygon class="cls-2" points="89.25 44.22 90.98 44.22 90.98 42.49 90.64 43.88 89.25 44.22"/><polygon class="cls-2" points="92.95 44.22 91.23 44.22 91.23 42.49 91.57 43.88 92.95 44.22"/><polygon class="cls-2" points="89.25 44.26 90.98 44.26 90.98 45.99 90.64 44.6 89.25 44.26"/><polygon class="cls-2" points="92.95 44.26 91.23 44.26 91.23 45.99 91.57 44.6 92.95 44.26"/><polygon class="cls-2" points="89.25 40.59 90.98 40.59 90.98 38.87 90.64 40.26 89.25 40.59"/><polygon class="cls-2" points="92.95 40.59 91.23 40.59 91.23 38.87 91.57 40.26 92.95 40.59"/><polygon class="cls-2" points="89.25 40.64 90.98 40.64 90.98 42.36 90.64 40.98 89.25 40.64"/><polygon class="cls-2" points="92.95 40.64 91.23 40.64 91.23 42.36 91.57 40.98 92.95 40.64"/><polygon class="cls-2" points="89.25 36.97 90.98 36.97 90.98 35.25 90.64 36.63 89.25 36.97"/><polygon class="cls-2" points="92.95 36.97 91.23 36.97 91.23 35.25 91.57 36.63 92.95 36.97"/><polygon class="cls-2" points="89.25 37.02 90.98 37.02 90.98 38.74 90.64 37.35 89.25 37.02"/><polygon class="cls-2" points="92.95 37.02 91.23 37.02 91.23 38.74 91.57 37.35 92.95 37.02"/><polygon class="cls-2" points="89.25 33.35 90.98 33.35 90.98 31.62 90.64 33.01 89.25 33.35"/><polygon class="cls-2" points="92.95 33.35 91.23 33.35 91.23 31.62 91.57 33.01 92.95 33.35"/><polygon class="cls-2" points="89.25 33.39 90.98 33.39 90.98 35.12 90.64 33.73 89.25 33.39"/><polygon class="cls-2" points="92.95 33.39 91.23 33.39 91.23 35.12 91.57 33.73 92.95 33.39"/><polygon class="cls-2" points="93.19 44.22 94.92 44.22 94.92 42.49 94.58 43.88 93.19 44.22"/><polygon class="cls-2" points="96.89 44.22 95.17 44.22 95.17 42.49 95.5 43.88 96.89 44.22"/><polygon class="cls-2" points="93.19 44.26 94.92 44.26 94.92 45.99 94.58 44.6 93.19 44.26"/><polygon class="cls-2" points="96.89 44.26 95.17 44.26 95.17 45.99 95.5 44.6 96.89 44.26"/><polygon class="cls-2" points="93.19 40.59 94.92 40.59 94.92 38.87 94.58 40.26 93.19 40.59"/><polygon class="cls-2" points="96.89 40.59 95.17 40.59 95.17 38.87 95.5 40.26 96.89 40.59"/><polygon class="cls-2" points="93.19 40.64 94.92 40.64 94.92 42.36 94.58 40.98 93.19 40.64"/><polygon class="cls-2" points="96.89 40.64 95.17 40.64 95.17 42.36 95.5 40.98 96.89 40.64"/><polygon class="cls-2" points="93.19 36.97 94.92 36.97 94.92 35.25 94.58 36.63 93.19 36.97"/><polygon class="cls-2" points="96.89 36.97 95.17 36.97 95.17 35.25 95.5 36.63 96.89 36.97"/><polygon class="cls-2" points="93.19 37.02 94.92 37.02 94.92 38.74 94.58 37.35 93.19 37.02"/><polygon class="cls-2" points="96.89 37.02 95.17 37.02 95.17 38.74 95.5 37.35 96.89 37.02"/><polygon class="cls-2" points="93.19 33.35 94.92 33.35 94.92 31.62 94.58 33.01 93.19 33.35"/><polygon class="cls-2" points="96.89 33.35 95.17 33.35 95.17 31.62 95.5 33.01 96.89 33.35"/><polygon class="cls-2" points="93.19 33.39 94.92 33.39 94.92 35.12 94.58 33.73 93.19 33.39"/><polygon class="cls-2" points="96.89 33.39 95.17 33.39 95.17 35.12 95.5 33.73 96.89 33.39"/><polygon class="cls-2" points="93.19 47.84 94.92 47.84 94.92 46.12 94.58 47.51 93.19 47.84"/><polygon class="cls-2" points="96.89 47.84 95.17 47.84 95.17 46.12 95.5 47.51 96.89 47.84"/><path class="cls-2" d="M93.19,47.89h1.73v.42H94.6l0-.09Z"/><path class="cls-2" d="M96.89,47.89H95.17v.42h.32l0-.09Z"/><path class="cls-2" d="M97.13,47.84h1.56l.17-.05V46.12l-.34,1.38Z"/><path class="cls-2" d="M99.11,47.71V46.12l.33,1.38.14,0-.47.17"/><path class="cls-2" d="M97.13,47.89h1.41c-.23.06-.47.12-.72.16Z"/><polygon class="cls-2" points="93.19 44.22 94.92 44.22 94.92 42.49 94.58 43.88 93.19 44.22"/><polygon class="cls-2" points="96.89 44.22 95.17 44.22 95.17 42.49 95.5 43.88 96.89 44.22"/><polygon class="cls-2" points="93.19 44.26 94.92 44.26 94.92 45.99 94.58 44.6 93.19 44.26"/><polygon class="cls-2" points="96.89 44.26 95.17 44.26 95.17 45.99 95.5 44.6 96.89 44.26"/><polygon class="cls-2" points="93.19 40.59 94.92 40.59 94.92 38.87 94.58 40.26 93.19 40.59"/><polygon class="cls-2" points="96.89 40.59 95.17 40.59 95.17 38.87 95.5 40.26 96.89 40.59"/><polygon class="cls-2" points="93.19 40.64 94.92 40.64 94.92 42.36 94.58 40.98 93.19 40.64"/><polygon class="cls-2" points="96.89 40.64 95.17 40.64 95.17 42.36 95.5 40.98 96.89 40.64"/><polygon class="cls-2" points="93.19 36.97 94.92 36.97 94.92 35.25 94.58 36.63 93.19 36.97"/><polygon class="cls-2" points="96.89 36.97 95.17 36.97 95.17 35.25 95.5 36.63 96.89 36.97"/><polygon class="cls-2" points="93.19 37.02 94.92 37.02 94.92 38.74 94.58 37.35 93.19 37.02"/><polygon class="cls-2" points="96.89 37.02 95.17 37.02 95.17 38.74 95.5 37.35 96.89 37.02"/><polygon class="cls-2" points="93.19 33.35 94.92 33.35 94.92 31.62 94.58 33.01 93.19 33.35"/><polygon class="cls-2" points="96.89 33.35 95.17 33.35 95.17 31.62 95.5 33.01 96.89 33.35"/><polygon class="cls-2" points="93.19 33.39 94.92 33.39 94.92 35.12 94.58 33.73 93.19 33.39"/><polygon class="cls-2" points="96.89 33.39 95.17 33.39 95.17 35.12 95.5 33.73 96.89 33.39"/><polygon class="cls-2" points="97.13 44.22 98.86 44.22 98.86 42.49 98.52 43.88 97.13 44.22"/><polygon class="cls-2" points="100.83 44.22 99.11 44.22 99.11 42.49 99.44 43.88 100.83 44.22"/><polygon class="cls-2" points="97.13 44.26 98.86 44.26 98.86 45.99 98.52 44.6 97.13 44.26"/><polygon class="cls-2" points="100.83 44.26 99.11 44.26 99.11 45.99 99.44 44.6 100.83 44.26"/><polygon class="cls-2" points="97.13 40.59 98.86 40.59 98.86 38.87 98.52 40.26 97.13 40.59"/><polygon class="cls-2" points="100.83 40.59 99.11 40.59 99.11 38.87 99.44 40.26 100.83 40.59"/><polygon class="cls-2" points="97.13 40.64 98.86 40.64 98.86 42.36 98.52 40.98 97.13 40.64"/><polygon class="cls-2" points="100.83 40.64 99.11 40.64 99.11 42.36 99.44 40.98 100.83 40.64"/><polygon class="cls-2" points="97.13 36.97 98.86 36.97 98.86 35.25 98.52 36.63 97.13 36.97"/><polygon class="cls-2" points="100.83 36.97 99.11 36.97 99.11 35.25 99.44 36.63 100.83 36.97"/><polygon class="cls-2" points="97.13 37.02 98.86 37.02 98.86 38.74 98.52 37.35 97.13 37.02"/><polygon class="cls-2" points="100.83 37.02 99.11 37.02 99.11 38.74 99.44 37.35 100.83 37.02"/><polygon class="cls-2" points="97.13 33.35 98.86 33.35 98.86 31.62 98.52 33.01 97.13 33.35"/><polygon class="cls-2" points="100.83 33.35 99.11 33.35 99.11 31.62 99.44 33.01 100.83 33.35"/><polygon class="cls-2" points="97.13 33.39 98.86 33.39 98.86 35.12 98.52 33.73 97.13 33.39"/><polygon class="cls-2" points="100.83 33.39 99.11 33.39 99.11 35.12 99.44 33.73 100.83 33.39"/><polygon class="cls-2" points="101.07 44.22 102.8 44.22 102.8 42.49 102.46 43.88 101.07 44.22"/><path class="cls-2" d="M103.55,44.22h-.5V42.49l.33,1.39.33.08-.16.26"/><path class="cls-2" d="M101.07,44.26h1.73v1l-.15.16-.19-.79Z"/><path class="cls-2" d="M103.52,44.26h-.47v.66c.16-.21.32-.43.47-.66"/><polygon class="cls-2" points="101.07 40.59 102.8 40.59 102.8 38.87 102.46 40.26 101.07 40.59"/><polygon class="cls-2" points="104.77 40.59 103.05 40.59 103.05 38.87 103.38 40.26 104.77 40.59"/><polygon class="cls-2" points="101.07 40.64 102.8 40.64 102.8 42.36 102.46 40.98 101.07 40.64"/><polygon class="cls-2" points="104.77 40.64 103.05 40.64 103.05 42.36 103.38 40.98 104.77 40.64"/><polygon class="cls-2" points="101.07 36.97 102.8 36.97 102.8 35.25 102.46 36.63 101.07 36.97"/><polygon class="cls-2" points="104.77 36.97 103.05 36.97 103.05 35.25 103.38 36.63 104.77 36.97"/><polygon class="cls-2" points="101.07 37.02 102.8 37.02 102.8 38.74 102.46 37.35 101.07 37.02"/><polygon class="cls-2" points="104.77 37.02 103.05 37.02 103.05 38.74 103.38 37.35 104.77 37.02"/><polygon class="cls-2" points="101.07 33.35 102.8 33.35 102.8 31.62 102.46 33.01 101.07 33.35"/><polygon class="cls-2" points="104.77 33.35 103.05 33.35 103.05 31.62 103.38 33.01 104.77 33.35"/><polygon class="cls-2" points="101.07 33.39 102.8 33.39 102.8 35.12 102.46 33.73 101.07 33.39"/><polygon class="cls-2" points="104.77 33.39 103.05 33.39 103.05 35.12 103.38 33.73 104.77 33.39"/><polygon class="cls-2" points="105.01 40.59 105.14 40.59 105.15 40.56 105.01 40.59"/><polygon class="cls-2" points="105.01 40.64 105.13 40.64 105.12 40.67 105.01 40.64"/><polygon class="cls-2" points="105.01 36.97 105.96 36.97 106 36.73 105.01 36.97"/><polygon class="cls-2" points="105.01 37.02 105.95 37.02 105.91 37.24 105.01 37.02"/><path class="cls-2" d="M105,33.35h1.5c.07-.52.15-1,.22-1.55v-.18L106.4,33Z"/><polygon class="cls-2" points="105.01 33.39 106.5 33.39 106.44 33.88 106.4 33.73 105.01 33.39"/></g></g></svg>