<svg width="30" height="30" viewBox="0 0 30 30" fill="none" xmlns="http://www.w3.org/2000/svg">
<g clip-path="url(#clip0)">
<path d="M30 15.5084C30 15.3829 29.9686 15.226 29.8745 15.1318C28.7448 13.6255 27.5837 12.1193 26.4226 10.613C25.8577 9.85984 25.8891 9.79708 25.1674 9.79708H22.2803C22.2803 9.70293 22.2803 7.6318 22.2803 6.69038C22.2803 6.21967 22.0607 6 21.5586 6C16.4749 6 11.3912 6 6.33889 6C5.8368 6 5.58575 6.25105 5.58575 6.75314C5.58575 7.38075 5.58575 7.66318 5.58575 8.2908C5.58575 8.63599 5.86818 8.91841 6.21337 8.91841C6.55856 8.91841 6.84099 8.63599 6.84099 8.2908C6.84099 7.85147 6.84099 7.72594 6.84099 7.28661C11.5481 7.28661 16.2552 7.28661 20.9623 7.28661C20.9623 11.3661 20.9623 19.4937 20.9623 19.4937H14.2155C13.7448 18.772 12.9289 18.2699 11.9874 18.2699C11.046 18.2699 10.2301 18.772 9.7594 19.4937H6.84099C6.84099 19.4937 6.84099 18.9289 6.84099 18.4582C6.84099 18.113 6.55856 17.8306 6.21337 17.8306C5.86818 17.8306 5.58575 18.113 5.58575 18.4582C5.58575 19.0858 5.58575 19.3682 5.58575 19.9958C5.58575 20.5293 5.80542 20.749 6.33889 20.749H9.38283C9.38283 20.8117 9.38283 20.8431 9.38283 20.9059C9.38283 22.3494 10.5753 23.5419 12.0188 23.5419C13.4623 23.5419 14.6548 22.3494 14.6548 20.9059C14.6548 20.8431 14.6548 20.8117 14.6548 20.749H22.8766C22.8766 20.8117 22.8766 20.8431 22.8766 20.9059C22.8766 22.3494 24.069 23.5419 25.5126 23.5419C26.9561 23.5419 28.1485 22.3494 28.1485 20.9059C28.1485 20.8431 28.1485 20.8117 28.1485 20.749H29.341C29.749 20.749 30 20.4979 30 20.0586C30 18.5523 30 17.046 30 15.5084ZM12.0188 22.1925C11.3284 22.1925 10.7322 21.6276 10.7322 20.9059C10.7322 20.1841 11.2971 19.6193 12.0188 19.6193C12.7092 19.6193 13.3054 20.1841 13.3054 20.9059C13.3054 21.6276 12.7092 22.1925 12.0188 22.1925ZM22.2803 11.1151H24.9791C25.0732 11.1151 25.1987 11.1464 25.2301 11.2092C26.1402 12.4017 28.023 14.8494 28.023 14.8494H22.2803V11.1151ZM25.5126 22.1925C24.8222 22.1925 24.2259 21.6276 24.2259 20.9059C24.2259 20.1841 24.7908 19.6193 25.5126 19.6193C26.2029 19.6193 26.7992 20.1841 26.7992 20.9059C26.7992 21.6276 26.2029 22.1925 25.5126 22.1925ZM28.7134 19.4937H27.7406C27.2699 18.772 26.454 18.2699 25.5126 18.2699C24.5711 18.2699 23.7552 18.772 23.2845 19.4937H22.3117V16.1674H28.7134V19.4937Z" fill="#979797"/>
<path d="M9.00628 11.1778H0.690377C0.313808 11.1778 0 10.864 0 10.4874C0 10.1109 0.313808 9.79706 0.690377 9.79706H9.00628C9.38285 9.79706 9.69666 10.1109 9.69666 10.4874C9.69666 10.864 9.41423 11.1778 9.00628 11.1778Z" fill="#979797"/>
<path d="M9.00628 14.0963H2.25941C1.88284 14.0963 1.56903 13.7825 1.56903 13.4059C1.56903 13.0293 1.88284 12.7155 2.25941 12.7155H9.00628C9.38284 12.7155 9.69665 13.0293 9.69665 13.4059C9.69665 13.7825 9.41423 14.0963 9.00628 14.0963Z" fill="#979797"/>
<path d="M9.00623 16.9833H3.5146C3.13803 16.9833 2.82422 16.6695 2.82422 16.2929C2.82422 15.9163 3.13803 15.6025 3.5146 15.6025H9.00623C9.3828 15.6025 9.69661 15.9163 9.69661 16.2929C9.69661 16.6695 9.41418 16.9833 9.00623 16.9833Z" fill="#979797"/>
</g>
<defs>
<clipPath id="clip0">
<rect width="30" height="30" fill="white"/>
</clipPath>
</defs>
</svg>
