<svg width="30" height="30" viewBox="0 0 30 30" fill="none" xmlns="http://www.w3.org/2000/svg">
<g clip-path="url(#clip0)">
<g clip-path="url(#clip1)">
<path d="M28.7653 13.1209C28.6909 13.0457 28.6026 12.9861 28.5054 12.9454C28.4082 12.9047 28.304 12.8838 28.1988 12.8838C28.0936 12.8838 27.9894 12.9047 27.8922 12.9454C27.795 12.9861 27.7067 13.0457 27.6323 13.1209L24.8162 15.9658V15.5254C24.8162 9.17023 19.6986 4 13.4081 4C7.11762 4 2 9.17022 2 15.5254C2 21.9628 7.11761 27.2 13.4081 27.2C14.9069 27.2042 16.3915 26.908 17.7762 26.3285C19.1608 25.749 20.418 24.8979 21.4748 23.8242C21.6249 23.6724 21.7092 23.4666 21.7091 23.252C21.709 23.0374 21.6246 22.8316 21.4745 22.6799C21.3243 22.5282 21.1206 22.4429 20.9082 22.4428C20.6958 22.4428 20.4921 22.5279 20.3418 22.6796C19.4334 23.6024 18.3528 24.3339 17.1626 24.832C15.9725 25.33 14.6963 25.5846 13.4081 25.5811C8.00139 25.5811 3.60246 21.0701 3.60246 15.5254C3.60246 12.898 4.63555 10.3783 6.47447 8.52047C8.31339 6.66264 10.8075 5.61893 13.4081 5.61893C16.0087 5.61893 18.5029 6.66264 20.3418 8.52047C22.1807 10.3783 23.2138 12.898 23.2138 15.5254V15.9658L20.3977 13.1209C20.2475 12.9691 20.0437 12.8839 19.8313 12.8839C19.6188 12.8839 19.415 12.9691 19.2648 13.1209C19.1145 13.2727 19.0301 13.4786 19.0301 13.6932C19.0301 13.9079 19.1145 14.1138 19.2648 14.2656L23.448 18.4918C23.4855 18.5296 23.5267 18.5636 23.5709 18.5933C23.5899 18.6061 23.6105 18.6149 23.6303 18.6259C23.6786 18.6578 23.7323 18.6804 23.7887 18.6927C23.8119 18.6996 23.8341 18.7087 23.8582 18.7135C23.9617 18.7348 24.0684 18.7348 24.1719 18.7135C24.1959 18.7087 24.2181 18.6996 24.2413 18.6927C24.2977 18.6804 24.3514 18.6578 24.3997 18.6259C24.4195 18.6149 24.4401 18.6061 24.4592 18.5933C24.5033 18.5636 24.5445 18.5296 24.582 18.4918L28.7653 14.2656C28.8397 14.1904 28.8987 14.1012 28.939 14.003C28.9793 13.9048 29 13.7995 29 13.6932C29 13.5869 28.9793 13.4817 28.939 13.3835C28.8987 13.2853 28.8397 13.1961 28.7653 13.1209V13.1209Z" fill="#979797"/>
</g>
</g>
<defs>
<clipPath id="clip0">
<rect width="30" height="30" fill="white"/>
</clipPath>
<clipPath id="clip1">
<rect width="27" height="29" fill="white" transform="translate(2 1)"/>
</clipPath>
</defs>
</svg>
