<svg width="31" height="30" viewBox="0 0 31 30" fill="none" xmlns="http://www.w3.org/2000/svg">
<path d="M29.9765 14.8826L27.6761 10.5634C27.5822 10.4225 27.4413 10.3286 27.2535 10.3286H24.4366V6.9953C24.4366 5.77465 23.0751 5.07042 23.0751 4.2723V0.469484C23.0751 0.187793 22.8873 0 22.6056 0H20.8685C20.5869 0 20.3991 0.187793 20.3991 0.469484V4.2723C20.3991 5.07042 19.0376 5.77465 19.0376 6.9953V10.3286H17.723V6.9953C17.723 5.77465 16.3615 5.07042 16.3615 4.2723V0.469484C16.3615 0.187793 16.1737 0 15.892 0H14.1549C13.8732 0 13.6854 0.187793 13.6854 0.469484V4.2723C13.6854 5.07042 12.3239 5.77465 12.3239 6.9953V10.3286H11.0094V6.9953C11.0094 5.77465 9.64789 5.07042 9.64789 4.2723V0.469484C9.64789 0.187793 9.46009 0 9.1784 0H7.44131C7.15962 0 6.97183 0.187793 6.97183 0.469484V4.2723C6.97183 5.07042 5.61033 5.77465 5.61033 6.9953V10.3286H2.79343C2.60563 10.3286 2.46479 10.4225 2.37089 10.5634L0.0704225 14.8357C-0.0234742 14.9765 -0.0234742 15.1643 0.0704225 15.3052C0.164319 15.446 0.305164 15.5399 0.492958 15.5399H2.79343V28.6385C2.79343 29.3897 3.40376 30 4.15493 30H25.892C26.6432 30 27.2535 29.3897 27.2535 28.6385V15.5399H29.554C29.7418 15.5399 29.8826 15.446 29.9765 15.3052C30.0235 15.1643 30.0235 15.0235 29.9765 14.8826ZM19.9765 6.9953C19.9765 6.61972 20.2582 6.29108 20.5399 5.91549C20.9155 5.44601 21.338 4.92958 21.338 4.2723V0.938967H22.1362V4.2723C22.1362 5.49296 23.4977 6.19718 23.4977 6.9953V10.3286H19.9765V6.9953ZM13.2629 6.9953C13.2629 6.19718 14.6244 5.49296 14.6244 4.2723V0.938967H15.4225V4.2723C15.4225 5.49296 16.784 6.19718 16.784 6.9953V10.3286H13.2629V6.9953ZM6.50235 6.9953C6.50235 6.19718 7.86385 5.49296 7.86385 4.2723V0.938967H8.66197V4.2723C8.66197 5.49296 10.0235 6.19718 10.0235 6.9953V10.3286H6.50235V6.9953ZM26.3146 28.6854C26.3146 28.9202 26.1268 29.108 25.892 29.108H4.10798C3.87324 29.108 3.68545 28.9202 3.68545 28.6854V15.5399H26.3146V28.6854ZM1.24413 14.6009L3.02817 11.2676H26.9249L28.7089 14.6009H1.24413Z" fill="#979797"/>
<path d="M5.93898 26.8545H13.216C13.4977 26.8545 13.6855 26.6667 13.6855 26.385V24.1315C13.6855 23.8498 13.4977 23.662 13.216 23.662H5.93898C5.65729 23.662 5.46949 23.8498 5.46949 24.1315V26.385C5.46949 26.6667 5.70424 26.8545 5.93898 26.8545ZM6.40846 24.6009H12.7465V25.9155H6.40846V24.6009Z" fill="#979797"/>
<path d="M19.9765 24.6009H24.0611C24.3427 24.6009 24.5305 24.4131 24.5305 24.1315C24.5305 23.8498 24.3427 23.662 24.0611 23.662H19.9765C19.6949 23.662 19.5071 23.8498 19.5071 24.1315C19.5071 24.3662 19.6949 24.6009 19.9765 24.6009Z" fill="#979797"/>
<path d="M19.9765 26.8545H24.0611C24.3427 26.8545 24.5305 26.6667 24.5305 26.385C24.5305 26.1033 24.3427 25.9155 24.0611 25.9155H19.9765C19.6949 25.9155 19.5071 26.1033 19.5071 26.385C19.5071 26.6667 19.6949 26.8545 19.9765 26.8545Z" fill="#979797"/>
</svg>
