<svg xmlns="http://www.w3.org/2000/svg" viewBox="0 0 20.25 31.33"><defs><style>.cls-1{fill:none;stroke:#cd8c36;stroke-miterlimit:2.61;stroke-width:0.46px;}.cls-2{fill:#9d2c30;}.cls-2,.cls-4,.cls-6{fill-rule:evenodd;}.cls-3,.cls-4{fill:#cd8c36;}.cls-5{font-size:1.72px;font-family:TrajanPro-Regular, Trajan Pro;}.cls-5,.cls-6{fill:#fff;}</style></defs><title>Asset 1</title><g id="Layer_2" data-name="Layer 2"><g id="Layer_1-2" data-name="Layer 1"><path class="cls-1" d="M20,14.14c-3.3,5.66,0,17-9.89,17s-6.6-11.3-9.9-17c0-2.6,3.06-2.2,2.75-4.08H17.27C17,11.94,20,11.54,20,14.14Z"/><path class="cls-2" d="M19.24,14.12c-3,5.2,0,16.13-9.11,16.13S4.07,19.32,1,14.12c0-2.4,2.82-1.49,2.54-3.22H16.7c-.28,1.73,2.54.82,2.54,3.22"/><path class="cls-3" d="M6.18,6.42H7.31c.06-.74.42-3,2.78-3s2.79,2.28,2.87,3h1.12l-1.33.45h-.22V6.65s-.07-2.78-2.43-2.78S7.76,6.64,7.76,6.64v.23H7.53Z"/><path class="cls-3" d="M5.89,6.19H7.05a3,3,0,0,1,3-3.06,3.09,3.09,0,0,1,3.14,3.06h1.19l-1.26.15h-.07V6.26a3,3,0,0,0-3-3,2.86,2.86,0,0,0-2.88,3v.08H7.13Z"/><path class="cls-3" d="M5.58,6H6.83a3.07,3.07,0,0,1,3.24-3.11A3.22,3.22,0,0,1,13.44,6h1.28l-1.35.15h-.08V6.08a3.1,3.1,0,0,0-3.22-3A3,3,0,0,0,7,6.07v.08H6.9Z"/><path class="cls-4" d="M10.08,1.89c1.28,0,2.31.77,2.31,1.72v0a3.18,3.18,0,0,0-2.31-.85,3.18,3.18,0,0,0-2.31.85v0c0-.95,1-1.72,2.31-1.72"/><path class="cls-4" d="M9.83.38c-.25.45-.55.36-.56.67s.27.29.21.51a1,1,0,0,1-.15.27,3,3,0,0,1,.75-.1,3.17,3.17,0,0,1,.76.1.84.84,0,0,1-.16-.27c0-.22.24-.21.22-.51s-.32-.22-.57-.67-.25-.45-.5,0"/><path class="cls-4" d="M16.38,1.33l-.11,0a.53.53,0,0,1,0,.17l-.11,0-.12,0,0,.06.09.07-.21.1v.06a.19.19,0,0,1,.13,0,3,3,0,0,0-.41.17l0,.15,0,.09-.4.26c.12.2.33.67.45.22l.15,0,.14.08S16,3,16,3c-.72.2-.45-.07-.28.35.07,0,.1.05.17,0s.08-.11.26-.08l-.05.1-.26.05-.17.06a1.17,1.17,0,0,1-.29.08v0A1.47,1.47,0,0,1,15,3.07a4.13,4.13,0,0,1-.41-.55L14.5,2a.26.26,0,0,1-.14-.17l-.15,0,.08.12,0,.08L14.1,2C14,2,14,2,13.93,2a.32.32,0,0,0-.12.14v.05a.21.21,0,0,1,.17,0v0c-.19.1-.11.13-.15.24l-.05.08.07.21h0L14,2.56a.15.15,0,0,0,.12,0,4.61,4.61,0,0,1,0,.53.29.29,0,0,0-.14,0l0-.14-.1.06v.2l0,0v.09l.07.08.09,0,.22,0,.07-.06c0,.29,0,.24.12.39l.08-.1,0,.13a2,2,0,0,1,.08.31c.08-.13.06-.12.09-.31l0,0,0,.27a1.11,1.11,0,0,1,.1.23A.56.56,0,0,0,14.89,4l0,0,0,.22a.32.32,0,0,0-.14.12l.07,0,0,0h0l0,0,.12,0,0,.06-.22.11-.22.13-.26.07L14,4.78l-.19,0-.24.09L13.54,5c.05,0,.08-.07.14-.07l.07.1c-.16.2-.13.11-.16.32l0,0,.08-.08.07,0a1,1,0,0,0,0,.38.24.24,0,0,0,.1.1c0-.17,0-.13.15-.22a.37.37,0,0,1,.07-.14l.12-.09h.07c0,.12,0,.1-.09.19l0,.16c0,.06-.07,0-.07.13l.07,0,.22-.14.07-.15,0-.15h.12l.15.08h.09l0-.2A9.22,9.22,0,0,1,16,5.89l.36,0,.29.08c-.13.08-.46.28-.55.35-.78.73-.21.57-.12,1v.24l-.16.14-.25,0c-.24,0-.08,0-.28.12,0,0-.08,0,0,.17l.07,0,.07,0c0,.06,0,.12,0,.17l0,.17c.07-.08.05-.08.15-.12l.07.07,0,.12.08.1h0l0-.15A.38.38,0,0,0,16,8.17a.76.76,0,0,0,.22.28V8.31l.07-.05,0-.17-.05-.16,0-.08.21.12h0l-.05-.22c.12.08.09.06.24.08a.33.33,0,0,1-.05-.24.67.67,0,0,0,.24.07l-.15-.24V7.2L16.48,7l0-.09s0,0,.05,0h.26a3.83,3.83,0,0,1,.43-.07l.08,0,0,.23c.55.46.18.2.89.51l.05.08V8l-.06.24c-.39-.06-.15,0-.48.05l-.09.19.12,0v.07l0,0,0,.24h0a.32.32,0,0,1,.1-.1c.12.13,0,.1.15.28H18l0-.07.14-.12.07,0c0,.07,0,.07,0,.15l.09.09c0-.06,0-.07,0-.1l.14-.11,0-.22c0-.06.15-.15.15-.22l.22,0c-.09-.19-.06-.09-.13-.16l-.07-.1,0-.12L19,8c-.08-.1,0-.08-.09-.17l-.1-.15,0,0a.6.6,0,0,0,.22.09c0-.05,0-.09-.05-.14-.07-.21,0-.1-.19-.27l0-.19L18.71,7l-.27-.08-.2-.12-.09-.22.09-.4.42.11c.62-.06.87-.26.84-.89l-.1-.21a3.09,3.09,0,0,0-.5-.37c-.45-.51-.58-.22-.39,0l-.2,0L18.08,5l-.24,0-.13-.16V4.57l.12-.08.08,0,0,.29.1.09.2-.06-.08,0c0-1.44.56,0,1.06,0-.95-2.82-.43-1.38-1.3-1.16-.07.2-.06.12,0,.34a5.86,5.86,0,0,0-.43.41l-.07.19,0,.24s0,0,0,.1a2.33,2.33,0,0,0,.19.22l.29.1h.18l-.08.17c.26.1.14.36.46.36,0-.31-.05-.61.43-.64l.3.18.07.15c0,.32-.07.44-.36.58l-.37,0a4,4,0,0,1-.38-.24l-.13-.23-.47-.27L17.23,5V4.84l0-.2.1-.36L17.49,4l.08.06a.66.66,0,0,1,.1-.47l.11,0V3.32L17.71,3v-.1l.12,0s.07-.08.07-.12l-.08,0,0-.08V2.49l-.08-.12c.08-.15.07-.1.07-.27l-.14,0-.22-.26-.33-.2c-.09,0-.35,0-.48-.12s0-.1-.23-.22"/><path class="cls-4" d="M10.13,5.14C10.62,5.14,11,6,11,7s-.39,1.81-.88,1.81S9.26,8,9.26,7s.39-1.82.87-1.82M6.82,9h.39V7.87h1V7.62H6.82Zm6.77,0H13.2V7.87h-1V7.62h1.35Zm.55-.32V7.08h-1.9s0,.47,0-.13-.12-2.73-2.1-2.73S8.06,6.35,8.06,7v.13H6.16V8.64H3l-.35.63H17.56l-.28-.63Z"/><path class="cls-4" d="M10.08,0a.26.26,0,0,1,.26.26.26.26,0,1,1-.52,0A.26.26,0,0,1,10.08,0"/><path class="cls-4" d="M4,1.33l.11,0a.53.53,0,0,0,0,.17l.1,0,.12,0,0,.06-.08.07.2.1,0,.06a.24.24,0,0,0-.14,0A2.19,2.19,0,0,1,4.7,2l.06.15,0,.09.39.26c-.11.2-.33.67-.44.22l-.15,0-.14.08s-.06.2,0,.21c.71.2.45-.07.28.35-.07,0-.1.05-.17,0s-.08-.11-.26-.08l0,.1.26.05.17.06A1.07,1.07,0,0,0,5,3.55v0a1.62,1.62,0,0,0,.39-.46,4.13,4.13,0,0,0,.41-.55l0-.48C5.93,2,5.91,2,6,1.87l.15,0L6,2V2L6.22,2c.1.06.08,0,.18,0a.38.38,0,0,1,.11.14v.05c-.09,0-.07,0-.17,0v0c.2.1.12.13.16.24l0,.08-.07.21h0l-.09-.17a.15.15,0,0,1-.12,0,4.61,4.61,0,0,0,0,.53A.29.29,0,0,1,6.4,3l0-.14.1.06v.2l0,0v.09l-.06.08-.09,0-.22,0-.07-.06c0,.29,0,.24-.12.39l-.08-.1,0,.13A2.12,2.12,0,0,0,5.76,4c-.07-.13,0-.12-.08-.31l0,0V4a1,1,0,0,0-.11.23A.76.76,0,0,1,5.44,4l0,0,0,.22a.32.32,0,0,1,.14.12l-.07,0,0,0h0l0,0-.12,0,.05.06.22.11.22.13.26.07.15-.08.19,0,.24.09L6.79,5S6.71,5,6.65,5l-.07.1c.16.2.13.11.16.32l0,0-.08-.08-.07,0a1,1,0,0,1,0,.38.24.24,0,0,1-.1.1c-.06-.17,0-.13-.15-.22a.37.37,0,0,0-.07-.14l-.12-.09H6a.26.26,0,0,0,.08.19l0,.16c0,.06.07,0,.07.13l-.07,0-.22-.14-.07-.15,0-.15H5.63l-.16.08H5.39l.05-.2a9.22,9.22,0,0,0-1.11.58L4,5.87,3.68,6c.13.08.46.28.55.35.78.73.2.57.12,1v.24l.16.14.25,0c.23,0,.08,0,.28.12,0,0,.08,0,0,.17L5,7.92,5,8C5,8,5,8.07,5,8.12l0,.17c-.07-.08,0-.08-.15-.12l-.07.07,0,.12-.08.1h0l0-.15a.35.35,0,0,1-.2-.14.76.76,0,0,1-.22.28V8.31l-.07-.05,0-.17.05-.16V7.85L3.92,8h0l.06-.22a.37.37,0,0,1-.24.08.33.33,0,0,0,0-.24.67.67,0,0,1-.24.07l.15-.24V7.2L3.85,7l0-.09s0,0-.05,0H3.56a3.83,3.83,0,0,0-.43-.07l-.08,0,0,.23c-.54.46-.17.2-.88.51l-.06.08V8l.07.24c.39-.06.15,0,.48.05l.09.19-.12,0v.07l0,0,0,.24h0a.32.32,0,0,0-.1-.1c-.13.13,0,.1-.16.28h0V8.86l-.14-.12-.07,0c0,.07,0,.07,0,.15L2,9c0-.06,0-.07,0-.1L1.8,8.75l-.05-.22c0-.06-.15-.15-.15-.22l-.23,0c.1-.19.07-.09.14-.16l.07-.1,0-.12-.2,0c.08-.1,0-.08.09-.17l.1-.15,0,0a.6.6,0,0,1-.22.09c0-.05,0-.09.05-.14.07-.21,0-.1.19-.27V7.13L1.61,7l.28-.08.2-.12.09-.22-.09-.4-.43.11C1.05,6.24.8,6,.83,5.41l.1-.21a2.71,2.71,0,0,1,.5-.37c.44-.51.58-.22.39,0l.2,0L2.25,5l.23,0,.14-.16V4.57L2.5,4.49l-.08,0,0,.29-.1.09-.21-.06.09,0c0-1.44-.56,0-1.06,0C2.05,2,1.53,3.43,2.4,3.65c.07.2.06.12,0,.34a5.86,5.86,0,0,1,.43.41l.07.19v.24s0,0,0,.1a2.33,2.33,0,0,1-.19.22l-.29.1H2.19l.09.17c-.26.1-.14.36-.46.36,0-.31.05-.61-.43-.64l-.31.18L1,5.46c0,.32.07.44.35.58l.38,0,.38-.24.13-.23.46-.27L3.1,5V4.84l0-.2L3,4.28,2.84,4,2.76,4a.66.66,0,0,0-.1-.47l-.11,0V3.32L2.62,3l0-.1-.12,0s-.06-.08-.06-.12l.08,0,0-.08V2.49l.08-.12c-.08-.15-.07-.1-.07-.27l.14,0,.22-.26.33-.2c.09,0,.35,0,.47-.12s0-.1.24-.22"/><path class="cls-2" d="M10.13,5.14C10.62,5.14,11,6,11,7s-.39,1.81-.88,1.81S9.26,8,9.26,7s.39-1.82.87-1.82"/><text class="cls-5" transform="translate(9.37 7.6)">G</text><path class="cls-6" d="M10.14,5.24c.43,0,.79.68.79,1.53v.06c0-.81-.37-1.36-.79-1.36S9.37,6,9.35,6.83V6.77c0-.85.36-1.53.79-1.53"/><path class="cls-6" d="M10.14,8.61c.43,0,.79-.68.79-1.52V7c0,.81-.37,1.36-.79,1.36S9.37,7.83,9.35,7v.07c0,.84.36,1.52.79,1.52"/><polygon class="cls-4" points="2.77 12.66 2.77 12.72 2.75 12.66 2.77 12.66"/><path class="cls-4" d="M2.92,12.59v.13l0-.14ZM4,11.65h-.1v0Z"/><polygon class="cls-4" points="3.99 11.63 3.89 11.63 3.89 11.6 3.99 11.63"/><polygon class="cls-4" points="4.13 11.65 5.2 11.65 5.2 12.72 4.99 11.86 4.13 11.65"/><polygon class="cls-4" points="6.42 11.65 5.35 11.65 5.35 12.72 5.56 11.86 6.42 11.65"/><polygon class="cls-4" points="4.13 11.63 5.2 11.63 5.2 11.36 5 11.36 4.99 11.42 4.13 11.63"/><polygon class="cls-4" points="6.42 11.63 5.35 11.63 5.35 11.36 5.55 11.36 5.56 11.42 6.42 11.63"/><polygon class="cls-4" points="6.56 11.65 7.63 11.65 7.63 12.72 7.42 11.86 6.56 11.65"/><polygon class="cls-4" points="8.85 11.65 7.78 11.65 7.78 12.72 7.99 11.86 8.85 11.65"/><polygon class="cls-4" points="6.56 11.63 7.63 11.63 7.63 11.36 7.43 11.36 7.42 11.42 6.56 11.63"/><polygon class="cls-4" points="8.85 11.63 7.78 11.63 7.78 11.36 7.98 11.36 7.99 11.42 8.85 11.63"/><polygon class="cls-4" points="8.99 11.65 10.06 11.65 10.06 12.72 9.85 11.86 8.99 11.65"/><polygon class="cls-4" points="11.28 11.65 10.21 11.65 10.21 12.72 10.42 11.86 11.28 11.65"/><polygon class="cls-4" points="8.99 11.63 10.06 11.63 10.06 11.36 9.86 11.36 9.85 11.42 8.99 11.63"/><polygon class="cls-4" points="11.28 11.63 10.21 11.63 10.21 11.36 10.41 11.36 10.42 11.42 11.28 11.63"/><polygon class="cls-4" points="1.56 13.89 1.52 13.89 1.52 13.9 1.56 13.89"/><polygon class="cls-4" points="1.56 13.86 1.53 13.86 1.53 13.85 1.56 13.86"/><polygon class="cls-4" points="1.71 13.89 2.77 13.89 2.77 14.95 2.56 14.1 1.71 13.89"/><polygon class="cls-4" points="3.99 13.89 2.92 13.89 2.92 14.95 3.13 14.1 3.99 13.89"/><polygon class="cls-4" points="1.71 13.86 2.77 13.86 2.77 12.8 2.56 13.65 1.71 13.86"/><polygon class="cls-4" points="3.99 13.86 2.92 13.86 2.92 12.8 3.13 13.65 3.99 13.86"/><path class="cls-4" d="M2.19,16.12h.58v1.07l-.21-.86-.33-.08a.93.93,0,0,0,0-.13"/><polygon class="cls-4" points="3.99 16.12 2.92 16.12 2.92 17.19 3.13 16.33 3.99 16.12"/><path class="cls-4" d="M2.18,16.09h.59V15l-.21.86-.41.1,0,.1"/><polygon class="cls-4" points="3.99 16.09 2.92 16.09 2.92 15.03 3.13 15.89 3.99 16.09"/><path class="cls-4" d="M2.72,18.36h0v.26c0-.09,0-.17,0-.26"/><polygon class="cls-4" points="3.99 18.36 2.92 18.36 2.92 19.42 3.13 18.57 3.99 18.36"/><path class="cls-4" d="M2.72,18.33h0V17.27l-.14.58.09.48"/><polygon class="cls-4" points="3.99 18.33 2.92 18.33 2.92 17.27 3.13 18.12 3.99 18.33"/><polygon class="cls-4" points="3.99 20.59 3.07 20.59 3.11 20.89 3.13 20.8 3.99 20.59"/><path class="cls-4" d="M4,20.56H3.06c0-.32-.09-.64-.14-.95V19.5l.21.86Z"/><polygon class="cls-4" points="4.13 13.89 5.2 13.89 5.2 14.95 4.99 14.1 4.13 13.89"/><polygon class="cls-4" points="6.42 13.89 5.35 13.89 5.35 14.95 5.56 14.1 6.42 13.89"/><polygon class="cls-4" points="4.13 13.86 5.2 13.86 5.2 12.8 4.99 13.65 4.13 13.86"/><polygon class="cls-4" points="6.42 13.86 5.35 13.86 5.35 12.8 5.56 13.65 6.42 13.86"/><polygon class="cls-4" points="4.13 16.12 5.2 16.12 5.2 17.19 4.99 16.33 4.13 16.12"/><polygon class="cls-4" points="6.42 16.12 5.35 16.12 5.35 17.19 5.56 16.33 6.42 16.12"/><polygon class="cls-4" points="4.13 16.09 5.2 16.09 5.2 15.03 4.99 15.89 4.13 16.09"/><polygon class="cls-4" points="6.42 16.09 5.35 16.09 5.35 15.03 5.56 15.89 6.42 16.09"/><polygon class="cls-4" points="4.13 18.36 5.2 18.36 5.2 19.42 4.99 18.57 4.13 18.36"/><polygon class="cls-4" points="6.42 18.36 5.35 18.36 5.35 19.42 5.56 18.57 6.42 18.36"/><polygon class="cls-4" points="4.13 18.33 5.2 18.33 5.2 17.27 4.99 18.12 4.13 18.33"/><polygon class="cls-4" points="6.42 18.33 5.35 18.33 5.35 17.27 5.56 18.12 6.42 18.33"/><polygon class="cls-4" points="4.13 20.59 5.2 20.59 5.2 21.66 4.99 20.8 4.13 20.59"/><polygon class="cls-4" points="6.42 20.59 5.35 20.59 5.35 21.66 5.56 20.8 6.42 20.59"/><polygon class="cls-4" points="4.13 20.56 5.2 20.56 5.2 19.5 4.99 20.36 4.13 20.56"/><polygon class="cls-4" points="6.42 20.56 5.35 20.56 5.35 19.5 5.56 20.36 6.42 20.56"/><polygon class="cls-4" points="6.56 13.89 7.63 13.89 7.63 14.95 7.42 14.1 6.56 13.89"/><polygon class="cls-4" points="8.85 13.89 7.78 13.89 7.78 14.95 7.99 14.1 8.85 13.89"/><polygon class="cls-4" points="6.56 13.86 7.63 13.86 7.63 12.8 7.42 13.65 6.56 13.86"/><polygon class="cls-4" points="8.85 13.86 7.78 13.86 7.78 12.8 7.99 13.65 8.85 13.86"/><polygon class="cls-4" points="6.56 16.12 7.63 16.12 7.63 17.19 7.42 16.33 6.56 16.12"/><polygon class="cls-4" points="8.85 16.12 7.78 16.12 7.78 17.19 7.99 16.33 8.85 16.12"/><polygon class="cls-4" points="6.56 16.09 7.63 16.09 7.63 15.03 7.42 15.89 6.56 16.09"/><polygon class="cls-4" points="8.85 16.09 7.78 16.09 7.78 15.03 7.99 15.89 8.85 16.09"/><polygon class="cls-4" points="6.56 18.36 7.63 18.36 7.63 19.42 7.42 18.57 6.56 18.36"/><polygon class="cls-4" points="8.85 18.36 7.78 18.36 7.78 19.42 7.99 18.57 8.85 18.36"/><polygon class="cls-4" points="6.56 18.33 7.63 18.33 7.63 17.27 7.42 18.12 6.56 18.33"/><polygon class="cls-4" points="8.85 18.33 7.78 18.33 7.78 17.27 7.99 18.12 8.85 18.33"/><polygon class="cls-4" points="6.56 20.59 7.63 20.59 7.63 21.66 7.42 20.8 6.56 20.59"/><polygon class="cls-4" points="8.85 20.59 7.78 20.59 7.78 21.66 7.99 20.8 8.85 20.59"/><polygon class="cls-4" points="6.56 20.56 7.63 20.56 7.63 19.5 7.42 20.36 6.56 20.56"/><polygon class="cls-4" points="8.85 20.56 7.78 20.56 7.78 19.5 7.99 20.36 8.85 20.56"/><polygon class="cls-4" points="8.99 13.89 10.06 13.89 10.06 14.95 9.85 14.1 8.99 13.89"/><polygon class="cls-4" points="11.28 13.89 10.21 13.89 10.21 14.95 10.42 14.1 11.28 13.89"/><polygon class="cls-4" points="8.99 13.86 10.06 13.86 10.06 12.8 9.85 13.65 8.99 13.86"/><polygon class="cls-4" points="11.28 13.86 10.21 13.86 10.21 12.8 10.42 13.65 11.28 13.86"/><polygon class="cls-4" points="8.99 16.12 10.06 16.12 10.06 17.19 9.85 16.33 8.99 16.12"/><polygon class="cls-4" points="11.28 16.12 10.21 16.12 10.21 17.19 10.42 16.33 11.28 16.12"/><polygon class="cls-4" points="8.99 16.09 10.06 16.09 10.06 15.03 9.85 15.89 8.99 16.09"/><polygon class="cls-4" points="11.28 16.09 10.21 16.09 10.21 15.03 10.42 15.89 11.28 16.09"/><polygon class="cls-4" points="8.99 18.36 10.06 18.36 10.06 19.42 9.85 18.57 8.99 18.36"/><polygon class="cls-4" points="11.28 18.36 10.21 18.36 10.21 19.42 10.42 18.57 11.28 18.36"/><polygon class="cls-4" points="8.99 18.33 10.06 18.33 10.06 17.27 9.85 18.12 8.99 18.33"/><polygon class="cls-4" points="11.28 18.33 10.21 18.33 10.21 17.27 10.42 18.12 11.28 18.33"/><polygon class="cls-4" points="8.99 20.59 10.06 20.59 10.06 21.66 9.85 20.8 8.99 20.59"/><polygon class="cls-4" points="11.28 20.59 10.21 20.59 10.21 21.66 10.42 20.8 11.28 20.59"/><polygon class="cls-4" points="8.99 20.56 10.06 20.56 10.06 19.5 9.85 20.36 8.99 20.56"/><polygon class="cls-4" points="11.28 20.56 10.21 20.56 10.21 19.5 10.42 20.36 11.28 20.56"/><polygon class="cls-4" points="8.99 11.65 10.06 11.65 10.06 12.72 9.85 11.86 8.99 11.65"/><polygon class="cls-4" points="11.28 11.65 10.21 11.65 10.21 12.72 10.42 11.86 11.28 11.65"/><polygon class="cls-4" points="8.99 11.63 10.06 11.63 10.06 11.36 9.86 11.36 9.85 11.42 8.99 11.63"/><polygon class="cls-4" points="11.28 11.63 10.21 11.63 10.21 11.36 10.41 11.36 10.42 11.42 11.28 11.63"/><polygon class="cls-4" points="11.42 11.65 12.49 11.65 12.49 12.72 12.28 11.86 11.42 11.65"/><polygon class="cls-4" points="13.7 11.65 12.64 11.65 12.64 12.72 12.85 11.86 13.7 11.65"/><polygon class="cls-4" points="11.42 11.63 12.49 11.63 12.49 11.36 12.29 11.36 12.28 11.42 11.42 11.63"/><polygon class="cls-4" points="13.7 11.63 12.64 11.63 12.64 11.36 12.84 11.36 12.85 11.42 13.7 11.63"/><polygon class="cls-4" points="13.85 11.65 14.91 11.65 14.91 12.72 14.71 11.86 13.85 11.65"/><polygon class="cls-4" points="16.13 11.65 15.07 11.65 15.07 12.72 15.28 11.86 16.13 11.65"/><polygon class="cls-4" points="13.85 11.63 14.91 11.63 14.91 11.36 14.72 11.36 14.71 11.42 13.85 11.63"/><polygon class="cls-4" points="16.13 11.63 15.07 11.63 15.07 11.36 15.26 11.36 15.28 11.42 16.13 11.63"/><path class="cls-4" d="M17.34,12.59v.13l0-.14Zm-1.06-.94h.1v0Z"/><polygon class="cls-4" points="17.5 12.66 17.5 12.72 17.51 12.66 17.5 12.66"/><polygon class="cls-4" points="16.28 11.63 16.38 11.63 16.37 11.6 16.28 11.63"/><polygon class="cls-4" points="8.99 13.89 10.06 13.89 10.06 14.95 9.85 14.1 8.99 13.89"/><polygon class="cls-4" points="11.28 13.89 10.21 13.89 10.21 14.95 10.42 14.1 11.28 13.89"/><polygon class="cls-4" points="8.99 13.86 10.06 13.86 10.06 12.8 9.85 13.65 8.99 13.86"/><polygon class="cls-4" points="11.28 13.86 10.21 13.86 10.21 12.8 10.42 13.65 11.28 13.86"/><polygon class="cls-4" points="8.99 16.12 10.06 16.12 10.06 17.19 9.85 16.33 8.99 16.12"/><polygon class="cls-4" points="11.28 16.12 10.21 16.12 10.21 17.19 10.42 16.33 11.28 16.12"/><polygon class="cls-4" points="8.99 16.09 10.06 16.09 10.06 15.03 9.85 15.89 8.99 16.09"/><polygon class="cls-4" points="11.28 16.09 10.21 16.09 10.21 15.03 10.42 15.89 11.28 16.09"/><polygon class="cls-4" points="8.99 18.36 10.06 18.36 10.06 19.42 9.85 18.57 8.99 18.36"/><polygon class="cls-4" points="11.28 18.36 10.21 18.36 10.21 19.42 10.42 18.57 11.28 18.36"/><polygon class="cls-4" points="8.99 18.33 10.06 18.33 10.06 17.27 9.85 18.12 8.99 18.33"/><polygon class="cls-4" points="11.28 18.33 10.21 18.33 10.21 17.27 10.42 18.12 11.28 18.33"/><polygon class="cls-4" points="8.99 20.59 10.06 20.59 10.06 21.66 9.85 20.8 8.99 20.59"/><polygon class="cls-4" points="11.28 20.59 10.21 20.59 10.21 21.66 10.42 20.8 11.28 20.59"/><polygon class="cls-4" points="8.99 20.56 10.06 20.56 10.06 19.5 9.85 20.36 8.99 20.56"/><polygon class="cls-4" points="11.28 20.56 10.21 20.56 10.21 19.5 10.42 20.36 11.28 20.56"/><polygon class="cls-4" points="11.42 13.89 12.49 13.89 12.49 14.95 12.28 14.1 11.42 13.89"/><polygon class="cls-4" points="13.7 13.89 12.64 13.89 12.64 14.95 12.85 14.1 13.7 13.89"/><polygon class="cls-4" points="11.42 13.86 12.49 13.86 12.49 12.8 12.28 13.65 11.42 13.86"/><polygon class="cls-4" points="13.7 13.86 12.64 13.86 12.64 12.8 12.85 13.65 13.7 13.86"/><polygon class="cls-4" points="11.42 16.12 12.49 16.12 12.49 17.19 12.28 16.33 11.42 16.12"/><polygon class="cls-4" points="13.7 16.12 12.64 16.12 12.64 17.19 12.85 16.33 13.7 16.12"/><polygon class="cls-4" points="11.42 16.09 12.49 16.09 12.49 15.03 12.28 15.89 11.42 16.09"/><polygon class="cls-4" points="13.7 16.09 12.64 16.09 12.64 15.03 12.85 15.89 13.7 16.09"/><polygon class="cls-4" points="11.42 18.36 12.49 18.36 12.49 19.42 12.28 18.57 11.42 18.36"/><polygon class="cls-4" points="13.7 18.36 12.64 18.36 12.64 19.42 12.85 18.57 13.7 18.36"/><polygon class="cls-4" points="11.42 18.33 12.49 18.33 12.49 17.27 12.28 18.12 11.42 18.33"/><polygon class="cls-4" points="13.7 18.33 12.64 18.33 12.64 17.27 12.85 18.12 13.7 18.33"/><polygon class="cls-4" points="11.42 20.59 12.49 20.59 12.49 21.66 12.28 20.8 11.42 20.59"/><polygon class="cls-4" points="13.7 20.59 12.64 20.59 12.64 21.66 12.85 20.8 13.7 20.59"/><polygon class="cls-4" points="11.42 20.56 12.49 20.56 12.49 19.5 12.28 20.36 11.42 20.56"/><polygon class="cls-4" points="13.7 20.56 12.64 20.56 12.64 19.5 12.85 20.36 13.7 20.56"/><polygon class="cls-4" points="13.85 13.89 14.91 13.89 14.91 14.95 14.71 14.1 13.85 13.89"/><polygon class="cls-4" points="16.13 13.89 15.07 13.89 15.07 14.95 15.28 14.1 16.13 13.89"/><polygon class="cls-4" points="13.85 13.86 14.91 13.86 14.91 12.8 14.71 13.65 13.85 13.86"/><polygon class="cls-4" points="16.13 13.86 15.07 13.86 15.07 12.8 15.28 13.65 16.13 13.86"/><polygon class="cls-4" points="13.85 16.12 14.91 16.12 14.91 17.19 14.71 16.33 13.85 16.12"/><polygon class="cls-4" points="16.13 16.12 15.07 16.12 15.07 17.19 15.28 16.33 16.13 16.12"/><polygon class="cls-4" points="13.85 16.09 14.91 16.09 14.91 15.03 14.71 15.89 13.85 16.09"/><polygon class="cls-4" points="16.13 16.09 15.07 16.09 15.07 15.03 15.28 15.89 16.13 16.09"/><polygon class="cls-4" points="13.85 18.36 14.91 18.36 14.91 19.42 14.71 18.57 13.85 18.36"/><polygon class="cls-4" points="16.13 18.36 15.07 18.36 15.07 19.42 15.28 18.57 16.13 18.36"/><polygon class="cls-4" points="13.85 18.33 14.91 18.33 14.91 17.27 14.71 18.12 13.85 18.33"/><polygon class="cls-4" points="16.13 18.33 15.07 18.33 15.07 17.27 15.28 18.12 16.13 18.33"/><polygon class="cls-4" points="13.85 20.59 14.91 20.59 14.91 21.66 14.71 20.8 13.85 20.59"/><polygon class="cls-4" points="16.13 20.59 15.07 20.59 15.07 21.66 15.28 20.8 16.13 20.59"/><polygon class="cls-4" points="13.85 20.56 14.91 20.56 14.91 19.5 14.71 20.36 13.85 20.56"/><polygon class="cls-4" points="16.13 20.56 15.07 20.56 15.07 19.5 15.28 20.36 16.13 20.56"/><polygon class="cls-4" points="16.28 13.89 17.34 13.89 17.34 14.95 17.14 14.1 16.28 13.89"/><polygon class="cls-4" points="18.56 13.89 17.5 13.89 17.5 14.95 17.71 14.1 18.56 13.89"/><polygon class="cls-4" points="16.28 13.86 17.34 13.86 17.34 12.8 17.14 13.65 16.28 13.86"/><polygon class="cls-4" points="18.56 13.86 17.5 13.86 17.5 12.8 17.71 13.65 18.56 13.86"/><polygon class="cls-4" points="16.28 16.12 17.34 16.12 17.34 17.19 17.14 16.33 16.28 16.12"/><path class="cls-4" d="M18.08,16.12H17.5v1.07l.21-.86.32-.08s0-.08,0-.13"/><polygon class="cls-4" points="16.28 16.09 17.34 16.09 17.34 15.03 17.14 15.89 16.28 16.09"/><path class="cls-4" d="M18.08,16.09H17.5V15l.21.86.41.1a.42.42,0,0,1,0,.1"/><polygon class="cls-4" points="16.28 18.36 17.34 18.36 17.34 19.42 17.14 18.57 16.28 18.36"/><path class="cls-4" d="M17.55,18.36H17.5v.26a2.38,2.38,0,0,1,.05-.26"/><polygon class="cls-4" points="16.28 18.33 17.34 18.33 17.34 17.27 17.14 18.12 16.28 18.33"/><path class="cls-4" d="M17.55,18.33H17.5V17.27l.14.58-.09.48"/><polygon class="cls-4" points="16.28 20.59 17.2 20.59 17.16 20.89 17.14 20.8 16.28 20.59"/><path class="cls-4" d="M16.28,20.56h.93c0-.32.09-.63.13-.95V19.5l-.2.86Z"/><polygon class="cls-4" points="18.71 13.89 18.75 13.89 18.75 13.9 18.71 13.89"/><polygon class="cls-4" points="18.71 13.86 18.74 13.86 18.74 13.85 18.71 13.86"/><path class="cls-4" d="M7.63,29.42v-1l-.21.85-.08,0,.29.11"/><path class="cls-4" d="M8.85,29.5h-1l-.1,0v-1l.21.85Z"/><path class="cls-4" d="M8.85,29.53H8l.44.1Z"/><polygon class="cls-4" points="8.99 29.5 10.06 29.5 10.06 28.44 9.85 29.29 8.99 29.5"/><polygon class="cls-4" points="11.28 29.5 10.21 29.5 10.21 28.44 10.42 29.29 11.28 29.5"/><path class="cls-4" d="M9,29.53h1.07v.26h-.2v-.05Z"/><path class="cls-4" d="M11.28,29.53H10.21v.26h.2v-.05Z"/><polygon class="cls-4" points="3.99 25.03 3.91 25.03 3.9 25.01 3.99 25.03"/><polygon class="cls-4" points="3.99 25.06 3.92 25.06 3.92 25.08 3.99 25.06"/><polygon class="cls-4" points="3.99 22.8 3.4 22.8 3.38 22.65 3.99 22.8"/><polygon class="cls-4" points="3.99 22.83 3.41 22.83 3.43 22.96 3.99 22.83"/><path class="cls-4" d="M4,20.56H3.06c0-.32-.09-.64-.14-.95V19.5l.21.86Z"/><polygon class="cls-4" points="3.99 20.59 3.07 20.59 3.11 20.89 3.13 20.8 3.99 20.59"/><path class="cls-4" d="M4.89,27.27H5.2V26.2L5,27.06l-.2.05c0,.05.07.1.1.16"/><polygon class="cls-4" points="6.42 27.27 5.35 27.27 5.35 26.2 5.56 27.06 6.42 27.27"/><path class="cls-4" d="M4.91,27.3H5.2v.4c-.1-.13-.2-.26-.29-.4"/><path class="cls-4" d="M6.42,27.3H5.35v.59l.09.1.12-.49Z"/><polygon class="cls-4" points="4.13 25.03 5.2 25.03 5.2 23.97 4.99 24.82 4.13 25.03"/><polygon class="cls-4" points="6.42 25.03 5.35 25.03 5.35 23.97 5.56 24.82 6.42 25.03"/><polygon class="cls-4" points="4.13 25.06 5.2 25.06 5.2 26.12 4.99 25.27 4.13 25.06"/><polygon class="cls-4" points="6.42 25.06 5.35 25.06 5.35 26.12 5.56 25.27 6.42 25.06"/><polygon class="cls-4" points="4.13 22.8 5.2 22.8 5.2 21.73 4.99 22.59 4.13 22.8"/><polygon class="cls-4" points="6.42 22.8 5.35 22.8 5.35 21.73 5.56 22.59 6.42 22.8"/><polygon class="cls-4" points="4.13 22.83 5.2 22.83 5.2 23.89 4.99 23.03 4.13 22.83"/><polygon class="cls-4" points="6.42 22.83 5.35 22.83 5.35 23.89 5.56 23.03 6.42 22.83"/><polygon class="cls-4" points="4.13 20.56 5.2 20.56 5.2 19.5 4.99 20.36 4.13 20.56"/><polygon class="cls-4" points="6.42 20.56 5.35 20.56 5.35 19.5 5.56 20.36 6.42 20.56"/><polygon class="cls-4" points="4.13 20.59 5.2 20.59 5.2 21.66 4.99 20.8 4.13 20.59"/><polygon class="cls-4" points="6.42 20.59 5.35 20.59 5.35 21.66 5.56 20.8 6.42 20.59"/><polygon class="cls-4" points="6.56 27.27 7.63 27.27 7.63 26.2 7.42 27.06 6.56 27.27"/><polygon class="cls-4" points="8.85 27.27 7.78 27.27 7.78 26.2 7.99 27.06 8.85 27.27"/><polygon class="cls-4" points="6.56 27.3 7.63 27.3 7.63 28.36 7.42 27.5 6.56 27.3"/><polygon class="cls-4" points="8.85 27.3 7.78 27.3 7.78 28.36 7.99 27.5 8.85 27.3"/><polygon class="cls-4" points="6.56 25.03 7.63 25.03 7.63 23.97 7.42 24.82 6.56 25.03"/><polygon class="cls-4" points="8.85 25.03 7.78 25.03 7.78 23.97 7.99 24.82 8.85 25.03"/><polygon class="cls-4" points="6.56 25.06 7.63 25.06 7.63 26.12 7.42 25.27 6.56 25.06"/><polygon class="cls-4" points="8.85 25.06 7.78 25.06 7.78 26.12 7.99 25.27 8.85 25.06"/><polygon class="cls-4" points="6.56 22.8 7.63 22.8 7.63 21.73 7.42 22.59 6.56 22.8"/><polygon class="cls-4" points="8.85 22.8 7.78 22.8 7.78 21.73 7.99 22.59 8.85 22.8"/><polygon class="cls-4" points="6.56 22.83 7.63 22.83 7.63 23.89 7.42 23.03 6.56 22.83"/><polygon class="cls-4" points="8.85 22.83 7.78 22.83 7.78 23.89 7.99 23.03 8.85 22.83"/><polygon class="cls-4" points="6.56 20.56 7.63 20.56 7.63 19.5 7.42 20.36 6.56 20.56"/><polygon class="cls-4" points="8.85 20.56 7.78 20.56 7.78 19.5 7.99 20.36 8.85 20.56"/><polygon class="cls-4" points="6.56 20.59 7.63 20.59 7.63 21.66 7.42 20.8 6.56 20.59"/><polygon class="cls-4" points="8.85 20.59 7.78 20.59 7.78 21.66 7.99 20.8 8.85 20.59"/><polygon class="cls-4" points="8.99 27.27 10.06 27.27 10.06 26.2 9.85 27.06 8.99 27.27"/><polygon class="cls-4" points="11.28 27.27 10.21 27.27 10.21 26.2 10.42 27.06 11.28 27.27"/><polygon class="cls-4" points="8.99 27.3 10.06 27.3 10.06 28.36 9.85 27.5 8.99 27.3"/><polygon class="cls-4" points="11.28 27.3 10.21 27.3 10.21 28.36 10.42 27.5 11.28 27.3"/><polygon class="cls-4" points="8.99 25.03 10.06 25.03 10.06 23.97 9.85 24.82 8.99 25.03"/><polygon class="cls-4" points="11.28 25.03 10.21 25.03 10.21 23.97 10.42 24.82 11.28 25.03"/><polygon class="cls-4" points="8.99 25.06 10.06 25.06 10.06 26.12 9.85 25.27 8.99 25.06"/><polygon class="cls-4" points="11.28 25.06 10.21 25.06 10.21 26.12 10.42 25.27 11.28 25.06"/><polygon class="cls-4" points="8.99 22.8 10.06 22.8 10.06 21.73 9.85 22.59 8.99 22.8"/><polygon class="cls-4" points="11.28 22.8 10.21 22.8 10.21 21.73 10.42 22.59 11.28 22.8"/><polygon class="cls-4" points="8.99 22.83 10.06 22.83 10.06 23.89 9.85 23.03 8.99 22.83"/><polygon class="cls-4" points="11.28 22.83 10.21 22.83 10.21 23.89 10.42 23.03 11.28 22.83"/><polygon class="cls-4" points="8.99 20.56 10.06 20.56 10.06 19.5 9.85 20.36 8.99 20.56"/><polygon class="cls-4" points="11.28 20.56 10.21 20.56 10.21 19.5 10.42 20.36 11.28 20.56"/><polygon class="cls-4" points="8.99 20.59 10.06 20.59 10.06 21.66 9.85 20.8 8.99 20.59"/><polygon class="cls-4" points="11.28 20.59 10.21 20.59 10.21 21.66 10.42 20.8 11.28 20.59"/><polygon class="cls-4" points="8.99 29.5 10.06 29.5 10.06 28.44 9.85 29.29 8.99 29.5"/><polygon class="cls-4" points="11.28 29.5 10.21 29.5 10.21 28.44 10.42 29.29 11.28 29.5"/><path class="cls-4" d="M9,29.53h1.07v.26h-.2v-.05Z"/><path class="cls-4" d="M11.28,29.53H10.21v.26h.2v-.05Z"/><path class="cls-4" d="M11.42,29.5h1l.1,0v-1l-.21.85Z"/><path class="cls-4" d="M12.64,29.42v-1l.21.85.08,0-.29.11"/><path class="cls-4" d="M11.42,29.53h.87l-.44.1Z"/><polygon class="cls-4" points="8.99 27.27 10.06 27.27 10.06 26.2 9.85 27.06 8.99 27.27"/><polygon class="cls-4" points="11.28 27.27 10.21 27.27 10.21 26.2 10.42 27.06 11.28 27.27"/><polygon class="cls-4" points="8.99 27.3 10.06 27.3 10.06 28.36 9.85 27.5 8.99 27.3"/><polygon class="cls-4" points="11.28 27.3 10.21 27.3 10.21 28.36 10.42 27.5 11.28 27.3"/><polygon class="cls-4" points="8.99 25.03 10.06 25.03 10.06 23.97 9.85 24.82 8.99 25.03"/><polygon class="cls-4" points="11.28 25.03 10.21 25.03 10.21 23.97 10.42 24.82 11.28 25.03"/><polygon class="cls-4" points="8.99 25.06 10.06 25.06 10.06 26.12 9.85 25.27 8.99 25.06"/><polygon class="cls-4" points="11.28 25.06 10.21 25.06 10.21 26.12 10.42 25.27 11.28 25.06"/><polygon class="cls-4" points="8.99 22.8 10.06 22.8 10.06 21.73 9.85 22.59 8.99 22.8"/><polygon class="cls-4" points="11.28 22.8 10.21 22.8 10.21 21.73 10.42 22.59 11.28 22.8"/><polygon class="cls-4" points="8.99 22.83 10.06 22.83 10.06 23.89 9.85 23.03 8.99 22.83"/><polygon class="cls-4" points="11.28 22.83 10.21 22.83 10.21 23.89 10.42 23.03 11.28 22.83"/><polygon class="cls-4" points="8.99 20.56 10.06 20.56 10.06 19.5 9.85 20.36 8.99 20.56"/><polygon class="cls-4" points="11.28 20.56 10.21 20.56 10.21 19.5 10.42 20.36 11.28 20.56"/><polygon class="cls-4" points="8.99 20.59 10.06 20.59 10.06 21.66 9.85 20.8 8.99 20.59"/><polygon class="cls-4" points="11.28 20.59 10.21 20.59 10.21 21.66 10.42 20.8 11.28 20.59"/><polygon class="cls-4" points="11.42 27.27 12.49 27.27 12.49 26.2 12.28 27.06 11.42 27.27"/><polygon class="cls-4" points="13.71 27.27 12.64 27.27 12.64 26.2 12.85 27.06 13.71 27.27"/><polygon class="cls-4" points="11.42 27.3 12.49 27.3 12.49 28.36 12.28 27.5 11.42 27.3"/><polygon class="cls-4" points="13.71 27.3 12.64 27.3 12.64 28.36 12.85 27.5 13.71 27.3"/><polygon class="cls-4" points="11.42 25.03 12.49 25.03 12.49 23.97 12.28 24.82 11.42 25.03"/><polygon class="cls-4" points="13.71 25.03 12.64 25.03 12.64 23.97 12.85 24.82 13.71 25.03"/><polygon class="cls-4" points="11.42 25.06 12.49 25.06 12.49 26.12 12.28 25.27 11.42 25.06"/><polygon class="cls-4" points="13.71 25.06 12.64 25.06 12.64 26.12 12.85 25.27 13.71 25.06"/><polygon class="cls-4" points="11.42 22.8 12.49 22.8 12.49 21.73 12.28 22.59 11.42 22.8"/><polygon class="cls-4" points="13.71 22.8 12.64 22.8 12.64 21.73 12.85 22.59 13.71 22.8"/><polygon class="cls-4" points="11.42 22.83 12.49 22.83 12.49 23.89 12.28 23.03 11.42 22.83"/><polygon class="cls-4" points="13.71 22.83 12.64 22.83 12.64 23.89 12.85 23.03 13.71 22.83"/><polygon class="cls-4" points="11.42 20.56 12.49 20.56 12.49 19.5 12.28 20.36 11.42 20.56"/><polygon class="cls-4" points="13.71 20.56 12.64 20.56 12.64 19.5 12.85 20.36 13.71 20.56"/><polygon class="cls-4" points="11.42 20.59 12.49 20.59 12.49 21.66 12.28 20.8 11.42 20.59"/><polygon class="cls-4" points="13.71 20.59 12.64 20.59 12.64 21.66 12.85 20.8 13.71 20.59"/><polygon class="cls-4" points="13.85 27.27 14.91 27.27 14.91 26.2 14.71 27.06 13.85 27.27"/><path class="cls-4" d="M15.38,27.27h-.31V26.2l.21.86.2.05a.86.86,0,0,0-.1.16"/><path class="cls-4" d="M13.85,27.3h1.06v.59a.39.39,0,0,1-.08.1l-.12-.49Z"/><path class="cls-4" d="M15.36,27.3h-.29v.4c.1-.13.2-.26.29-.4"/><polygon class="cls-4" points="13.85 25.03 14.91 25.03 14.91 23.97 14.71 24.82 13.85 25.03"/><polygon class="cls-4" points="16.13 25.03 15.07 25.03 15.07 23.97 15.28 24.82 16.13 25.03"/><polygon class="cls-4" points="13.85 25.06 14.91 25.06 14.91 26.12 14.71 25.27 13.85 25.06"/><polygon class="cls-4" points="16.13 25.06 15.07 25.06 15.07 26.12 15.28 25.27 16.13 25.06"/><polygon class="cls-4" points="13.85 22.8 14.91 22.8 14.91 21.73 14.71 22.59 13.85 22.8"/><polygon class="cls-4" points="16.13 22.8 15.07 22.8 15.07 21.73 15.28 22.59 16.13 22.8"/><polygon class="cls-4" points="13.85 22.83 14.91 22.83 14.91 23.89 14.71 23.03 13.85 22.83"/><polygon class="cls-4" points="16.13 22.83 15.07 22.83 15.07 23.89 15.28 23.03 16.13 22.83"/><polygon class="cls-4" points="13.85 20.56 14.91 20.56 14.91 19.5 14.71 20.36 13.85 20.56"/><polygon class="cls-4" points="16.13 20.56 15.07 20.56 15.07 19.5 15.28 20.36 16.13 20.56"/><polygon class="cls-4" points="13.85 20.59 14.91 20.59 14.91 21.66 14.71 20.8 13.85 20.59"/><polygon class="cls-4" points="16.13 20.59 15.07 20.59 15.07 21.66 15.28 20.8 16.13 20.59"/><polygon class="cls-4" points="16.28 25.03 16.36 25.03 16.37 25.01 16.28 25.03"/><polygon class="cls-4" points="16.28 25.06 16.35 25.06 16.35 25.08 16.28 25.06"/><polygon class="cls-4" points="16.28 22.8 16.87 22.8 16.89 22.65 16.28 22.8"/><polygon class="cls-4" points="16.28 22.83 16.86 22.83 16.84 22.96 16.28 22.83"/><path class="cls-4" d="M16.28,20.56h.93c0-.32.09-.64.13-.95V19.5l-.2.86Z"/><polygon class="cls-4" points="16.28 20.59 17.2 20.59 17.16 20.89 17.14 20.8 16.28 20.59"/></g></g></svg>